# MagicaVoxel @ ephtracy

# material
mtllib HockyRinkMiddle.mtl
usemtl palette

# normals
vn -1 0 0
vn 1 0 0
vn 0 0 1
vn 0 0 -1
vn 0 -1 0
vn 0 1 0

# texcoords
vt 0.705078 0.5
vt 0.841797 0.5
vt 0.958984 0.5

# verts
v -53 0 36
v -53 0 34
v -53 0 1
v -53 0 -1
v -53 0 -35
v -53 0 -37
v -53 1 36
v -53 1 34
v -53 1 1
v -53 1 -1
v -53 1 -35
v -53 1 -37
v 53 0 36
v 53 0 34
v 53 0 1
v 53 0 -1
v 53 0 -35
v 53 0 -37
v 53 1 36
v 53 1 34
v 53 1 1
v 53 1 -1
v 53 1 -35
v 53 1 -37
v -53 0 36
v -53 1 36
v 53 0 36
v 53 1 36
v -53 0 -37
v -53 1 -37
v 53 0 -37
v 53 1 -37
v -53 0 36
v 53 0 36
v -53 0 34
v 53 0 34
v -41 0 30
v -38 0 30
v -42 0 29
v -41 0 29
v -38 0 29
v -37 0 29
v 38 0 29
v 41 0 29
v 37 0 28
v 38 0 28
v 41 0 28
v 42 0 28
v -42 0 26
v -41 0 26
v -38 0 26
v -37 0 26
v -41 0 25
v -38 0 25
v 37 0 25
v 38 0 25
v 41 0 25
v 42 0 25
v 38 0 24
v 41 0 24
v -3 0 12
v 4 0 12
v -5 0 11
v -3 0 11
v 4 0 11
v 6 0 11
v -7 0 10
v -5 0 10
v -3 0 10
v 4 0 10
v 6 0 10
v 8 0 10
v -8 0 9
v -7 0 9
v -5 0 9
v 6 0 9
v 8 0 9
v 9 0 9
v -9 0 8
v -8 0 8
v -7 0 8
v 8 0 8
v 9 0 8
v 10 0 8
v -10 0 6
v -9 0 6
v -8 0 6
v 9 0 6
v 10 0 6
v 11 0 6
v -11 0 4
v -10 0 4
v -9 0 4
v 10 0 4
v 11 0 4
v 12 0 4
v -53 0 1
v -11 0 1
v -10 0 1
v 11 0 1
v 12 0 1
v 53 0 1
v -53 0 -1
v -11 0 -1
v -10 0 -1
v 11 0 -1
v 12 0 -1
v 53 0 -1
v -11 0 -4
v -10 0 -4
v -9 0 -4
v 10 0 -4
v 11 0 -4
v 12 0 -4
v -10 0 -6
v -9 0 -6
v -8 0 -6
v 9 0 -6
v 10 0 -6
v 11 0 -6
v -9 0 -8
v -8 0 -8
v -7 0 -8
v 8 0 -8
v 9 0 -8
v 10 0 -8
v -8 0 -9
v -7 0 -9
v -5 0 -9
v 6 0 -9
v 8 0 -9
v 9 0 -9
v -7 0 -10
v -5 0 -10
v -3 0 -10
v 4 0 -10
v 6 0 -10
v 8 0 -10
v -5 0 -11
v -3 0 -11
v 4 0 -11
v 6 0 -11
v -3 0 -12
v 4 0 -12
v 38 0 -25
v 41 0 -25
v -41 0 -26
v -38 0 -26
v 37 0 -26
v 38 0 -26
v 41 0 -26
v 42 0 -26
v -42 0 -27
v -41 0 -27
v -38 0 -27
v -37 0 -27
v 37 0 -29
v 38 0 -29
v 41 0 -29
v 42 0 -29
v -42 0 -30
v -41 0 -30
v -38 0 -30
v -37 0 -30
v 38 0 -30
v 41 0 -30
v -41 0 -31
v -38 0 -31
v -53 0 -35
v 53 0 -35
v -53 0 -37
v 53 0 -37
v -53 1 36
v 53 1 36
v -53 1 34
v 53 1 34
v -41 1 30
v -38 1 30
v -42 1 29
v -41 1 29
v -38 1 29
v -37 1 29
v 38 1 29
v 41 1 29
v 37 1 28
v 38 1 28
v 41 1 28
v 42 1 28
v -42 1 26
v -41 1 26
v -38 1 26
v -37 1 26
v -41 1 25
v -38 1 25
v 37 1 25
v 38 1 25
v 41 1 25
v 42 1 25
v 38 1 24
v 41 1 24
v -3 1 12
v 4 1 12
v -5 1 11
v -3 1 11
v 4 1 11
v 6 1 11
v -7 1 10
v -5 1 10
v -3 1 10
v 4 1 10
v 6 1 10
v 8 1 10
v -8 1 9
v -7 1 9
v -5 1 9
v 6 1 9
v 8 1 9
v 9 1 9
v -9 1 8
v -8 1 8
v -7 1 8
v 8 1 8
v 9 1 8
v 10 1 8
v -10 1 6
v -9 1 6
v -8 1 6
v 9 1 6
v 10 1 6
v 11 1 6
v -11 1 4
v -10 1 4
v -9 1 4
v 10 1 4
v 11 1 4
v 12 1 4
v -53 1 1
v -11 1 1
v -10 1 1
v 11 1 1
v 12 1 1
v 53 1 1
v -53 1 -1
v -11 1 -1
v -10 1 -1
v 11 1 -1
v 12 1 -1
v 53 1 -1
v -11 1 -4
v -10 1 -4
v -9 1 -4
v 10 1 -4
v 11 1 -4
v 12 1 -4
v -10 1 -6
v -9 1 -6
v -8 1 -6
v 9 1 -6
v 10 1 -6
v 11 1 -6
v -9 1 -8
v -8 1 -8
v -7 1 -8
v 8 1 -8
v 9 1 -8
v 10 1 -8
v -8 1 -9
v -7 1 -9
v -5 1 -9
v 6 1 -9
v 8 1 -9
v 9 1 -9
v -7 1 -10
v -5 1 -10
v -3 1 -10
v 4 1 -10
v 6 1 -10
v 8 1 -10
v -5 1 -11
v -3 1 -11
v 4 1 -11
v 6 1 -11
v -3 1 -12
v 4 1 -12
v 38 1 -25
v 41 1 -25
v -41 1 -26
v -38 1 -26
v 37 1 -26
v 38 1 -26
v 41 1 -26
v 42 1 -26
v -42 1 -27
v -41 1 -27
v -38 1 -27
v -37 1 -27
v 37 1 -29
v 38 1 -29
v 41 1 -29
v 42 1 -29
v -42 1 -30
v -41 1 -30
v -38 1 -30
v -37 1 -30
v 38 1 -30
v 41 1 -30
v -41 1 -31
v -38 1 -31
v -53 1 -35
v 53 1 -35
v -53 1 -37
v 53 1 -37

# faces
f 7/1/1 2/1/1 1/1/1
f 8/3/1 3/3/1 2/3/1
f 8/1/1 2/1/1 7/1/1
f 9/2/1 4/2/1 3/2/1
f 9/3/1 3/3/1 8/3/1
f 10/3/1 5/3/1 4/3/1
f 10/2/1 4/2/1 9/2/1
f 11/1/1 6/1/1 5/1/1
f 11/3/1 5/3/1 10/3/1
f 12/1/1 6/1/1 11/1/1
f 13/1/2 14/1/2 19/1/2
f 14/3/2 15/3/2 20/3/2
f 19/1/2 14/1/2 20/1/2
f 15/2/2 16/2/2 21/2/2
f 20/3/2 15/3/2 21/3/2
f 16/3/2 17/3/2 22/3/2
f 21/2/2 16/2/2 22/2/2
f 17/1/2 18/1/2 23/1/2
f 22/3/2 17/3/2 23/3/2
f 23/1/2 18/1/2 24/1/2
f 27/1/3 26/1/3 25/1/3
f 28/1/3 26/1/3 27/1/3
f 29/1/4 30/1/4 31/1/4
f 31/1/4 30/1/4 32/1/4
f 35/1/5 34/1/5 33/1/5
f 36/1/5 34/1/5 35/1/5
f 37/3/5 36/3/5 35/3/5
f 38/3/5 36/3/5 37/3/5
f 39/3/5 37/3/5 35/3/5
f 40/2/5 38/2/5 37/2/5
f 40/3/5 37/3/5 39/3/5
f 41/3/5 36/3/5 38/3/5
f 41/2/5 38/2/5 40/2/5
f 42/3/5 36/3/5 41/3/5
f 43/3/5 36/3/5 42/3/5
f 44/3/5 36/3/5 43/3/5
f 45/3/5 43/3/5 42/3/5
f 46/2/5 44/2/5 43/2/5
f 46/3/5 43/3/5 45/3/5
f 47/3/5 36/3/5 44/3/5
f 47/2/5 44/2/5 46/2/5
f 48/3/5 36/3/5 47/3/5
f 49/2/5 40/2/5 39/2/5
f 49/3/5 39/3/5 35/3/5
f 49/2/5 41/2/5 40/2/5
f 49/2/5 42/2/5 41/2/5
f 50/2/5 42/2/5 49/2/5
f 51/2/5 42/2/5 50/2/5
f 52/3/5 45/3/5 42/3/5
f 52/2/5 42/2/5 51/2/5
f 53/2/5 51/2/5 50/2/5
f 53/3/5 50/3/5 49/3/5
f 54/3/5 52/3/5 51/3/5
f 54/2/5 51/2/5 53/2/5
f 55/2/5 48/2/5 47/2/5
f 55/3/5 52/3/5 54/3/5
f 55/2/5 47/2/5 46/2/5
f 55/3/5 45/3/5 52/3/5
f 55/2/5 46/2/5 45/2/5
f 56/2/5 48/2/5 55/2/5
f 57/2/5 48/2/5 56/2/5
f 58/3/5 36/3/5 48/3/5
f 58/2/5 48/2/5 57/2/5
f 59/2/5 57/2/5 56/2/5
f 59/3/5 54/3/5 53/3/5
f 59/3/5 55/3/5 54/3/5
f 59/3/5 56/3/5 55/3/5
f 60/3/5 58/3/5 57/3/5
f 60/2/5 57/2/5 59/2/5
f 61/3/5 59/3/5 53/3/5
f 61/3/5 60/3/5 59/3/5
f 62/3/5 60/3/5 61/3/5
f 63/3/5 61/3/5 53/3/5
f 64/1/5 62/1/5 61/1/5
f 64/3/5 61/3/5 63/3/5
f 65/3/5 60/3/5 62/3/5
f 65/1/5 62/1/5 64/1/5
f 66/3/5 60/3/5 65/3/5
f 67/3/5 63/3/5 53/3/5
f 68/1/5 64/1/5 63/1/5
f 68/3/5 63/3/5 67/3/5
f 69/3/5 65/3/5 64/3/5
f 69/1/5 64/1/5 68/1/5
f 70/1/5 66/1/5 65/1/5
f 70/3/5 65/3/5 69/3/5
f 71/3/5 60/3/5 66/3/5
f 71/1/5 66/1/5 70/1/5
f 72/3/5 60/3/5 71/3/5
f 73/3/5 67/3/5 53/3/5
f 74/1/5 68/1/5 67/1/5
f 74/3/5 67/3/5 73/3/5
f 75/3/5 70/3/5 69/3/5
f 75/1/5 68/1/5 74/1/5
f 75/3/5 69/3/5 68/3/5
f 75/3/5 71/3/5 70/3/5
f 76/1/5 72/1/5 71/1/5
f 76/3/5 71/3/5 75/3/5
f 77/3/5 60/3/5 72/3/5
f 77/1/5 72/1/5 76/1/5
f 78/3/5 60/3/5 77/3/5
f 79/3/5 73/3/5 53/3/5
f 80/1/5 74/1/5 73/1/5
f 80/3/5 73/3/5 79/3/5
f 81/3/5 76/3/5 75/3/5
f 81/1/5 74/1/5 80/1/5
f 81/3/5 75/3/5 74/3/5
f 81/3/5 77/3/5 76/3/5
f 82/1/5 78/1/5 77/1/5
f 82/3/5 77/3/5 81/3/5
f 83/3/5 60/3/5 78/3/5
f 83/1/5 78/1/5 82/1/5
f 84/3/5 60/3/5 83/3/5
f 85/3/5 79/3/5 53/3/5
f 86/1/5 80/1/5 79/1/5
f 86/3/5 79/3/5 85/3/5
f 87/3/5 82/3/5 81/3/5
f 87/1/5 80/1/5 86/1/5
f 87/3/5 81/3/5 80/3/5
f 87/3/5 83/3/5 82/3/5
f 88/1/5 84/1/5 83/1/5
f 88/3/5 83/3/5 87/3/5
f 89/3/5 60/3/5 84/3/5
f 89/1/5 84/1/5 88/1/5
f 90/3/5 60/3/5 89/3/5
f 91/3/5 85/3/5 53/3/5
f 92/1/5 86/1/5 85/1/5
f 92/3/5 85/3/5 91/3/5
f 93/3/5 88/3/5 87/3/5
f 93/1/5 86/1/5 92/1/5
f 93/3/5 87/3/5 86/3/5
f 93/3/5 89/3/5 88/3/5
f 94/1/5 90/1/5 89/1/5
f 94/3/5 89/3/5 93/3/5
f 95/3/5 60/3/5 90/3/5
f 95/1/5 90/1/5 94/1/5
f 96/3/5 60/3/5 95/3/5
f 97/3/5 53/3/5 49/3/5
f 97/3/5 49/3/5 35/3/5
f 97/3/5 91/3/5 53/3/5
f 98/1/5 92/1/5 91/1/5
f 98/3/5 91/3/5 97/3/5
f 99/3/5 94/3/5 93/3/5
f 99/1/5 92/1/5 98/1/5
f 99/3/5 95/3/5 94/3/5
f 99/3/5 93/3/5 92/3/5
f 100/1/5 96/1/5 95/1/5
f 100/3/5 95/3/5 99/3/5
f 101/3/5 60/3/5 96/3/5
f 101/1/5 96/1/5 100/1/5
f 102/3/5 36/3/5 58/3/5
f 102/3/5 60/3/5 101/3/5
f 102/3/5 58/3/5 60/3/5
f 103/2/5 101/2/5 100/2/5
f 103/2/5 100/2/5 99/2/5
f 103/2/5 102/2/5 101/2/5
f 103/2/5 98/2/5 97/2/5
f 103/2/5 99/2/5 98/2/5
f 104/2/5 102/2/5 103/2/5
f 105/2/5 102/2/5 104/2/5
f 106/2/5 102/2/5 105/2/5
f 107/2/5 102/2/5 106/2/5
f 108/2/5 102/2/5 107/2/5
f 109/3/5 104/3/5 103/3/5
f 109/1/5 105/1/5 104/1/5
f 110/3/5 106/3/5 105/3/5
f 110/1/5 105/1/5 109/1/5
f 111/3/5 106/3/5 110/3/5
f 112/3/5 106/3/5 111/3/5
f 113/1/5 107/1/5 106/1/5
f 113/3/5 106/3/5 112/3/5
f 114/3/5 108/3/5 107/3/5
f 114/1/5 107/1/5 113/1/5
f 115/3/5 110/3/5 109/3/5
f 115/1/5 111/1/5 110/1/5
f 116/3/5 112/3/5 111/3/5
f 116/1/5 111/1/5 115/1/5
f 117/3/5 112/3/5 116/3/5
f 118/3/5 112/3/5 117/3/5
f 119/1/5 113/1/5 112/1/5
f 119/3/5 112/3/5 118/3/5
f 120/3/5 114/3/5 113/3/5
f 120/1/5 113/1/5 119/1/5
f 121/3/5 116/3/5 115/3/5
f 121/1/5 117/1/5 116/1/5
f 122/3/5 118/3/5 117/3/5
f 122/1/5 117/1/5 121/1/5
f 123/3/5 118/3/5 122/3/5
f 124/3/5 118/3/5 123/3/5
f 125/1/5 119/1/5 118/1/5
f 125/3/5 118/3/5 124/3/5
f 126/3/5 120/3/5 119/3/5
f 126/1/5 119/1/5 125/1/5
f 127/3/5 122/3/5 121/3/5
f 127/1/5 123/1/5 122/1/5
f 128/3/5 124/3/5 123/3/5
f 128/1/5 123/1/5 127/1/5
f 129/3/5 124/3/5 128/3/5
f 130/3/5 124/3/5 129/3/5
f 131/1/5 125/1/5 124/1/5
f 131/3/5 124/3/5 130/3/5
f 132/3/5 126/3/5 125/3/5
f 132/1/5 125/1/5 131/1/5
f 133/3/5 128/3/5 127/3/5
f 133/1/5 129/1/5 128/1/5
f 134/3/5 130/3/5 129/3/5
f 134/1/5 129/1/5 133/1/5
f 135/3/5 130/3/5 134/3/5
f 136/3/5 130/3/5 135/3/5
f 137/1/5 131/1/5 130/1/5
f 137/3/5 130/3/5 136/3/5
f 138/3/5 132/3/5 131/3/5
f 138/1/5 131/1/5 137/1/5
f 139/3/5 134/3/5 133/3/5
f 139/1/5 135/1/5 134/1/5
f 140/3/5 136/3/5 135/3/5
f 140/1/5 135/1/5 139/1/5
f 141/1/5 137/1/5 136/1/5
f 141/3/5 136/3/5 140/3/5
f 142/3/5 138/3/5 137/3/5
f 142/1/5 137/1/5 141/1/5
f 143/3/5 140/3/5 139/3/5
f 143/1/5 141/1/5 140/1/5
f 144/3/5 142/3/5 141/3/5
f 144/1/5 141/1/5 143/1/5
f 145/3/5 108/3/5 114/3/5
f 145/3/5 142/3/5 144/3/5
f 145/3/5 144/3/5 143/3/5
f 145/3/5 114/3/5 120/3/5
f 145/3/5 132/3/5 138/3/5
f 145/3/5 138/3/5 142/3/5
f 145/3/5 126/3/5 132/3/5
f 145/3/5 120/3/5 126/3/5
f 146/3/5 108/3/5 145/3/5
f 147/3/5 121/3/5 115/3/5
f 147/3/5 109/3/5 103/3/5
f 147/3/5 115/3/5 109/3/5
f 147/3/5 145/3/5 143/3/5
f 147/3/5 133/3/5 127/3/5
f 147/3/5 139/3/5 133/3/5
f 147/3/5 127/3/5 121/3/5
f 147/3/5 143/3/5 139/3/5
f 148/3/5 145/3/5 147/3/5
f 149/3/5 145/3/5 148/3/5
f 150/2/5 146/2/5 145/2/5
f 150/3/5 145/3/5 149/3/5
f 151/3/5 108/3/5 146/3/5
f 151/2/5 146/2/5 150/2/5
f 152/3/5 108/3/5 151/3/5
f 153/3/5 147/3/5 103/3/5
f 154/2/5 148/2/5 147/2/5
f 154/3/5 147/3/5 153/3/5
f 155/3/5 149/3/5 148/3/5
f 155/2/5 148/2/5 154/2/5
f 156/3/5 149/3/5 155/3/5
f 157/2/5 150/2/5 149/2/5
f 157/3/5 149/3/5 156/3/5
f 157/2/5 151/2/5 150/2/5
f 157/2/5 152/2/5 151/2/5
f 158/2/5 152/2/5 157/2/5
f 159/2/5 152/2/5 158/2/5
f 160/3/5 108/3/5 152/3/5
f 160/2/5 152/2/5 159/2/5
f 161/2/5 156/2/5 155/2/5
f 161/2/5 154/2/5 153/2/5
f 161/3/5 153/3/5 103/3/5
f 161/2/5 155/2/5 154/2/5
f 162/2/5 156/2/5 161/2/5
f 163/2/5 156/2/5 162/2/5
f 164/3/5 158/3/5 157/3/5
f 164/2/5 156/2/5 163/2/5
f 164/3/5 157/3/5 156/3/5
f 165/2/5 159/2/5 158/2/5
f 165/3/5 158/3/5 164/3/5
f 166/3/5 160/3/5 159/3/5
f 166/2/5 159/2/5 165/2/5
f 167/2/5 163/2/5 162/2/5
f 167/3/5 162/3/5 161/3/5
f 168/3/5 165/3/5 164/3/5
f 168/2/5 163/2/5 167/2/5
f 168/3/5 164/3/5 163/3/5
f 168/3/5 166/3/5 165/3/5
f 169/3/5 167/3/5 161/3/5
f 169/3/5 161/3/5 103/3/5
f 169/3/5 168/3/5 167/3/5
f 170/3/5 108/3/5 160/3/5
f 170/3/5 168/3/5 169/3/5
f 170/3/5 166/3/5 168/3/5
f 170/3/5 160/3/5 166/3/5
f 171/1/5 170/1/5 169/1/5
f 172/1/5 170/1/5 171/1/5
f 173/1/6 174/1/6 175/1/6
f 175/1/6 174/1/6 176/1/6
f 175/3/6 176/3/6 177/3/6
f 177/3/6 176/3/6 178/3/6
f 175/3/6 177/3/6 179/3/6
f 177/2/6 178/2/6 180/2/6
f 179/3/6 177/3/6 180/3/6
f 178/3/6 176/3/6 181/3/6
f 180/2/6 178/2/6 181/2/6
f 181/3/6 176/3/6 182/3/6
f 182/3/6 176/3/6 183/3/6
f 183/3/6 176/3/6 184/3/6
f 182/3/6 183/3/6 185/3/6
f 183/2/6 184/2/6 186/2/6
f 185/3/6 183/3/6 186/3/6
f 184/3/6 176/3/6 187/3/6
f 186/2/6 184/2/6 187/2/6
f 187/3/6 176/3/6 188/3/6
f 179/2/6 180/2/6 189/2/6
f 175/3/6 179/3/6 189/3/6
f 180/2/6 181/2/6 189/2/6
f 181/2/6 182/2/6 189/2/6
f 189/2/6 182/2/6 190/2/6
f 190/2/6 182/2/6 191/2/6
f 182/3/6 185/3/6 192/3/6
f 191/2/6 182/2/6 192/2/6
f 190/2/6 191/2/6 193/2/6
f 189/3/6 190/3/6 193/3/6
f 191/3/6 192/3/6 194/3/6
f 193/2/6 191/2/6 194/2/6
f 187/2/6 188/2/6 195/2/6
f 194/3/6 192/3/6 195/3/6
f 186/2/6 187/2/6 195/2/6
f 192/3/6 185/3/6 195/3/6
f 185/2/6 186/2/6 195/2/6
f 195/2/6 188/2/6 196/2/6
f 196/2/6 188/2/6 197/2/6
f 188/3/6 176/3/6 198/3/6
f 197/2/6 188/2/6 198/2/6
f 196/2/6 197/2/6 199/2/6
f 193/3/6 194/3/6 199/3/6
f 194/3/6 195/3/6 199/3/6
f 195/3/6 196/3/6 199/3/6
f 197/3/6 198/3/6 200/3/6
f 199/2/6 197/2/6 200/2/6
f 193/3/6 199/3/6 201/3/6
f 199/3/6 200/3/6 201/3/6
f 201/3/6 200/3/6 202/3/6
f 193/3/6 201/3/6 203/3/6
f 201/1/6 202/1/6 204/1/6
f 203/3/6 201/3/6 204/3/6
f 202/3/6 200/3/6 205/3/6
f 204/1/6 202/1/6 205/1/6
f 205/3/6 200/3/6 206/3/6
f 193/3/6 203/3/6 207/3/6
f 203/1/6 204/1/6 208/1/6
f 207/3/6 203/3/6 208/3/6
f 204/3/6 205/3/6 209/3/6
f 208/1/6 204/1/6 209/1/6
f 205/1/6 206/1/6 210/1/6
f 209/3/6 205/3/6 210/3/6
f 206/3/6 200/3/6 211/3/6
f 210/1/6 206/1/6 211/1/6
f 211/3/6 200/3/6 212/3/6
f 193/3/6 207/3/6 213/3/6
f 207/1/6 208/1/6 214/1/6
f 213/3/6 207/3/6 214/3/6
f 209/3/6 210/3/6 215/3/6
f 214/1/6 208/1/6 215/1/6
f 208/3/6 209/3/6 215/3/6
f 210/3/6 211/3/6 215/3/6
f 211/1/6 212/1/6 216/1/6
f 215/3/6 211/3/6 216/3/6
f 212/3/6 200/3/6 217/3/6
f 216/1/6 212/1/6 217/1/6
f 217/3/6 200/3/6 218/3/6
f 193/3/6 213/3/6 219/3/6
f 213/1/6 214/1/6 220/1/6
f 219/3/6 213/3/6 220/3/6
f 215/3/6 216/3/6 221/3/6
f 220/1/6 214/1/6 221/1/6
f 214/3/6 215/3/6 221/3/6
f 216/3/6 217/3/6 221/3/6
f 217/1/6 218/1/6 222/1/6
f 221/3/6 217/3/6 222/3/6
f 218/3/6 200/3/6 223/3/6
f 222/1/6 218/1/6 223/1/6
f 223/3/6 200/3/6 224/3/6
f 193/3/6 219/3/6 225/3/6
f 219/1/6 220/1/6 226/1/6
f 225/3/6 219/3/6 226/3/6
f 221/3/6 222/3/6 227/3/6
f 226/1/6 220/1/6 227/1/6
f 220/3/6 221/3/6 227/3/6
f 222/3/6 223/3/6 227/3/6
f 223/1/6 224/1/6 228/1/6
f 227/3/6 223/3/6 228/3/6
f 224/3/6 200/3/6 229/3/6
f 228/1/6 224/1/6 229/1/6
f 229/3/6 200/3/6 230/3/6
f 193/3/6 225/3/6 231/3/6
f 225/1/6 226/1/6 232/1/6
f 231/3/6 225/3/6 232/3/6
f 227/3/6 228/3/6 233/3/6
f 232/1/6 226/1/6 233/1/6
f 226/3/6 227/3/6 233/3/6
f 228/3/6 229/3/6 233/3/6
f 229/1/6 230/1/6 234/1/6
f 233/3/6 229/3/6 234/3/6
f 230/3/6 200/3/6 235/3/6
f 234/1/6 230/1/6 235/1/6
f 235/3/6 200/3/6 236/3/6
f 189/3/6 193/3/6 237/3/6
f 175/3/6 189/3/6 237/3/6
f 193/3/6 231/3/6 237/3/6
f 231/1/6 232/1/6 238/1/6
f 237/3/6 231/3/6 238/3/6
f 233/3/6 234/3/6 239/3/6
f 238/1/6 232/1/6 239/1/6
f 234/3/6 235/3/6 239/3/6
f 232/3/6 233/3/6 239/3/6
f 235/1/6 236/1/6 240/1/6
f 239/3/6 235/3/6 240/3/6
f 236/3/6 200/3/6 241/3/6
f 240/1/6 236/1/6 241/1/6
f 198/3/6 176/3/6 242/3/6
f 241/3/6 200/3/6 242/3/6
f 200/3/6 198/3/6 242/3/6
f 240/2/6 241/2/6 243/2/6
f 239/2/6 240/2/6 243/2/6
f 241/2/6 242/2/6 243/2/6
f 237/2/6 238/2/6 243/2/6
f 238/2/6 239/2/6 243/2/6
f 243/2/6 242/2/6 244/2/6
f 244/2/6 242/2/6 245/2/6
f 245/2/6 242/2/6 246/2/6
f 246/2/6 242/2/6 247/2/6
f 247/2/6 242/2/6 248/2/6
f 243/3/6 244/3/6 249/3/6
f 244/1/6 245/1/6 249/1/6
f 245/3/6 246/3/6 250/3/6
f 249/1/6 245/1/6 250/1/6
f 250/3/6 246/3/6 251/3/6
f 251/3/6 246/3/6 252/3/6
f 246/1/6 247/1/6 253/1/6
f 252/3/6 246/3/6 253/3/6
f 247/3/6 248/3/6 254/3/6
f 253/1/6 247/1/6 254/1/6
f 249/3/6 250/3/6 255/3/6
f 250/1/6 251/1/6 255/1/6
f 251/3/6 252/3/6 256/3/6
f 255/1/6 251/1/6 256/1/6
f 256/3/6 252/3/6 257/3/6
f 257/3/6 252/3/6 258/3/6
f 252/1/6 253/1/6 259/1/6
f 258/3/6 252/3/6 259/3/6
f 253/3/6 254/3/6 260/3/6
f 259/1/6 253/1/6 260/1/6
f 255/3/6 256/3/6 261/3/6
f 256/1/6 257/1/6 261/1/6
f 257/3/6 258/3/6 262/3/6
f 261/1/6 257/1/6 262/1/6
f 262/3/6 258/3/6 263/3/6
f 263/3/6 258/3/6 264/3/6
f 258/1/6 259/1/6 265/1/6
f 264/3/6 258/3/6 265/3/6
f 259/3/6 260/3/6 266/3/6
f 265/1/6 259/1/6 266/1/6
f 261/3/6 262/3/6 267/3/6
f 262/1/6 263/1/6 267/1/6
f 263/3/6 264/3/6 268/3/6
f 267/1/6 263/1/6 268/1/6
f 268/3/6 264/3/6 269/3/6
f 269/3/6 264/3/6 270/3/6
f 264/1/6 265/1/6 271/1/6
f 270/3/6 264/3/6 271/3/6
f 265/3/6 266/3/6 272/3/6
f 271/1/6 265/1/6 272/1/6
f 267/3/6 268/3/6 273/3/6
f 268/1/6 269/1/6 273/1/6
f 269/3/6 270/3/6 274/3/6
f 273/1/6 269/1/6 274/1/6
f 274/3/6 270/3/6 275/3/6
f 275/3/6 270/3/6 276/3/6
f 270/1/6 271/1/6 277/1/6
f 276/3/6 270/3/6 277/3/6
f 271/3/6 272/3/6 278/3/6
f 277/1/6 271/1/6 278/1/6
f 273/3/6 274/3/6 279/3/6
f 274/1/6 275/1/6 279/1/6
f 275/3/6 276/3/6 280/3/6
f 279/1/6 275/1/6 280/1/6
f 276/1/6 277/1/6 281/1/6
f 280/3/6 276/3/6 281/3/6
f 277/3/6 278/3/6 282/3/6
f 281/1/6 277/1/6 282/1/6
f 279/3/6 280/3/6 283/3/6
f 280/1/6 281/1/6 283/1/6
f 281/3/6 282/3/6 284/3/6
f 283/1/6 281/1/6 284/1/6
f 254/3/6 248/3/6 285/3/6
f 284/3/6 282/3/6 285/3/6
f 283/3/6 284/3/6 285/3/6
f 260/3/6 254/3/6 285/3/6
f 278/3/6 272/3/6 285/3/6
f 282/3/6 278/3/6 285/3/6
f 272/3/6 266/3/6 285/3/6
f 266/3/6 260/3/6 285/3/6
f 285/3/6 248/3/6 286/3/6
f 255/3/6 261/3/6 287/3/6
f 243/3/6 249/3/6 287/3/6
f 249/3/6 255/3/6 287/3/6
f 283/3/6 285/3/6 287/3/6
f 267/3/6 273/3/6 287/3/6
f 273/3/6 279/3/6 287/3/6
f 261/3/6 267/3/6 287/3/6
f 279/3/6 283/3/6 287/3/6
f 287/3/6 285/3/6 288/3/6
f 288/3/6 285/3/6 289/3/6
f 285/2/6 286/2/6 290/2/6
f 289/3/6 285/3/6 290/3/6
f 286/3/6 248/3/6 291/3/6
f 290/2/6 286/2/6 291/2/6
f 291/3/6 248/3/6 292/3/6
f 243/3/6 287/3/6 293/3/6
f 287/2/6 288/2/6 294/2/6
f 293/3/6 287/3/6 294/3/6
f 288/3/6 289/3/6 295/3/6
f 294/2/6 288/2/6 295/2/6
f 295/3/6 289/3/6 296/3/6
f 289/2/6 290/2/6 297/2/6
f 296/3/6 289/3/6 297/3/6
f 290/2/6 291/2/6 297/2/6
f 291/2/6 292/2/6 297/2/6
f 297/2/6 292/2/6 298/2/6
f 298/2/6 292/2/6 299/2/6
f 292/3/6 248/3/6 300/3/6
f 299/2/6 292/2/6 300/2/6
f 295/2/6 296/2/6 301/2/6
f 293/2/6 294/2/6 301/2/6
f 243/3/6 293/3/6 301/3/6
f 294/2/6 295/2/6 301/2/6
f 301/2/6 296/2/6 302/2/6
f 302/2/6 296/2/6 303/2/6
f 297/3/6 298/3/6 304/3/6
f 303/2/6 296/2/6 304/2/6
f 296/3/6 297/3/6 304/3/6
f 298/2/6 299/2/6 305/2/6
f 304/3/6 298/3/6 305/3/6
f 299/3/6 300/3/6 306/3/6
f 305/2/6 299/2/6 306/2/6
f 302/2/6 303/2/6 307/2/6
f 301/3/6 302/3/6 307/3/6
f 304/3/6 305/3/6 308/3/6
f 307/2/6 303/2/6 308/2/6
f 303/3/6 304/3/6 308/3/6
f 305/3/6 306/3/6 308/3/6
f 301/3/6 307/3/6 309/3/6
f 243/3/6 301/3/6 309/3/6
f 307/3/6 308/3/6 309/3/6
f 300/3/6 248/3/6 310/3/6
f 309/3/6 308/3/6 310/3/6
f 308/3/6 306/3/6 310/3/6
f 306/3/6 300/3/6 310/3/6
f 309/1/6 310/1/6 311/1/6
f 311/1/6 310/1/6 312/1/6
