# MagicaVoxel @ ephtracy

# material
mtllib HockeyStick.mtl
usemtl palette

# normals
vn -1 0 0
vn 1 0 0
vn 0 0 1
vn 0 0 -1
vn 0 -1 0
vn 0 1 0

# texcoords
vt 0.0644531 0.5
vt 0.994141 0.5

# verts
v -7 48 2
v -7 48 -2
v -7 50 2
v -7 50 -2
v -6 6 1
v -6 6 -1
v -6 45 1
v -6 45 -1
v -6 48 1
v -6 48 -1
v -5 5 1
v -5 5 -1
v -5 6 1
v -5 6 -1
v -4 4 1
v -4 4 -1
v -4 5 1
v -4 5 -1
v -3 3 1
v -3 3 -1
v -3 4 1
v -3 4 -1
v -1 2 1
v -1 2 -1
v -1 3 1
v -1 3 -1
v 1 1 1
v 1 1 -1
v 1 2 1
v 1 2 -1
v 3 0 1
v 3 0 -1
v 3 1 1
v 3 1 -1
v -4 10 1
v -4 10 -1
v -4 45 1
v -4 45 -1
v -4 48 1
v -4 48 -1
v -3 9 1
v -3 9 -1
v -3 10 1
v -3 10 -1
v -3 48 2
v -3 48 -2
v -3 50 2
v -3 50 -2
v -1 8 1
v -1 8 -1
v -1 9 1
v -1 9 -1
v 1 7 1
v 1 7 -1
v 1 8 1
v 1 8 -1
v 2 6 1
v 2 6 -1
v 2 7 1
v 2 7 -1
v 4 5 1
v 4 5 -1
v 4 6 1
v 4 6 -1
v 6 0 1
v 6 0 -1
v 6 1 1
v 6 1 -1
v 6 4 1
v 6 4 -1
v 6 5 1
v 6 5 -1
v 7 1 1
v 7 1 -1
v 7 4 1
v 7 4 -1
v -7 48 2
v -7 50 2
v -3 48 2
v -3 50 2
v -6 6 1
v -6 45 1
v -6 48 1
v -5 5 1
v -5 6 1
v -4 4 1
v -4 5 1
v -4 10 1
v -4 45 1
v -4 48 1
v -3 3 1
v -3 4 1
v -3 9 1
v -3 10 1
v -1 2 1
v -1 3 1
v -1 8 1
v -1 9 1
v 1 1 1
v 1 2 1
v 1 7 1
v 1 8 1
v 2 6 1
v 2 7 1
v 3 0 1
v 3 1 1
v 4 5 1
v 4 6 1
v 6 0 1
v 6 1 1
v 6 4 1
v 6 5 1
v 7 1 1
v 7 4 1
v -6 6 -1
v -6 45 -1
v -6 48 -1
v -5 5 -1
v -5 6 -1
v -4 4 -1
v -4 5 -1
v -4 10 -1
v -4 45 -1
v -4 48 -1
v -3 3 -1
v -3 4 -1
v -3 9 -1
v -3 10 -1
v -1 2 -1
v -1 3 -1
v -1 8 -1
v -1 9 -1
v 1 1 -1
v 1 2 -1
v 1 7 -1
v 1 8 -1
v 2 6 -1
v 2 7 -1
v 3 0 -1
v 3 1 -1
v 4 5 -1
v 4 6 -1
v 6 0 -1
v 6 1 -1
v 6 4 -1
v 6 5 -1
v 7 1 -1
v 7 4 -1
v -7 48 -2
v -7 50 -2
v -3 48 -2
v -3 50 -2
v 3 0 1
v 6 0 1
v 3 0 -1
v 6 0 -1
v 1 1 1
v 3 1 1
v 6 1 1
v 7 1 1
v 1 1 -1
v 3 1 -1
v 6 1 -1
v 7 1 -1
v -1 2 1
v 1 2 1
v -1 2 -1
v 1 2 -1
v -3 3 1
v -1 3 1
v -3 3 -1
v -1 3 -1
v -4 4 1
v -3 4 1
v -4 4 -1
v -3 4 -1
v -5 5 1
v -4 5 1
v -5 5 -1
v -4 5 -1
v -6 6 1
v -5 6 1
v -6 6 -1
v -5 6 -1
v -7 48 2
v -3 48 2
v -6 48 1
v -4 48 1
v -6 48 -1
v -4 48 -1
v -7 48 -2
v -3 48 -2
v 6 4 1
v 7 4 1
v 6 4 -1
v 7 4 -1
v 4 5 1
v 6 5 1
v 4 5 -1
v 6 5 -1
v 2 6 1
v 4 6 1
v 2 6 -1
v 4 6 -1
v 1 7 1
v 2 7 1
v 1 7 -1
v 2 7 -1
v -1 8 1
v 1 8 1
v -1 8 -1
v 1 8 -1
v -3 9 1
v -1 9 1
v -3 9 -1
v -1 9 -1
v -4 10 1
v -3 10 1
v -4 10 -1
v -3 10 -1
v -7 50 2
v -3 50 2
v -7 50 -2
v -3 50 -2

# faces
f 3/2/1 2/2/1 1/2/1
f 4/2/1 2/2/1 3/2/1
f 7/1/1 6/1/1 5/1/1
f 8/1/1 6/1/1 7/1/1
f 9/2/1 8/2/1 7/2/1
f 10/2/1 8/2/1 9/2/1
f 13/1/1 12/1/1 11/1/1
f 14/1/1 12/1/1 13/1/1
f 17/1/1 16/1/1 15/1/1
f 18/1/1 16/1/1 17/1/1
f 21/2/1 20/2/1 19/2/1
f 22/2/1 20/2/1 21/2/1
f 25/2/1 24/2/1 23/2/1
f 26/2/1 24/2/1 25/2/1
f 29/2/1 28/2/1 27/2/1
f 30/2/1 28/2/1 29/2/1
f 33/2/1 32/2/1 31/2/1
f 34/2/1 32/2/1 33/2/1
f 35/1/2 36/1/2 37/1/2
f 37/1/2 36/1/2 38/1/2
f 37/2/2 38/2/2 39/2/2
f 39/2/2 38/2/2 40/2/2
f 41/1/2 42/1/2 43/1/2
f 43/1/2 42/1/2 44/1/2
f 45/2/2 46/2/2 47/2/2
f 47/2/2 46/2/2 48/2/2
f 49/2/2 50/2/2 51/2/2
f 51/2/2 50/2/2 52/2/2
f 53/2/2 54/2/2 55/2/2
f 55/2/2 54/2/2 56/2/2
f 57/2/2 58/2/2 59/2/2
f 59/2/2 58/2/2 60/2/2
f 61/2/2 62/2/2 63/2/2
f 63/2/2 62/2/2 64/2/2
f 65/2/2 66/2/2 67/2/2
f 67/2/2 66/2/2 68/2/2
f 69/2/2 70/2/2 71/2/2
f 71/2/2 70/2/2 72/2/2
f 73/1/2 74/1/2 75/1/2
f 75/1/2 74/1/2 76/1/2
f 79/2/3 78/2/3 77/2/3
f 80/2/3 78/2/3 79/2/3
f 85/1/3 82/1/3 81/1/3
f 87/1/3 85/1/3 84/1/3
f 88/1/3 82/1/3 85/1/3
f 88/1/3 85/1/3 87/1/3
f 89/2/3 83/2/3 82/2/3
f 89/1/3 82/1/3 88/1/3
f 90/2/3 83/2/3 89/2/3
f 92/1/3 88/1/3 87/1/3
f 92/1/3 87/1/3 86/1/3
f 93/1/3 88/1/3 92/1/3
f 94/1/3 88/1/3 93/1/3
f 96/2/3 92/2/3 91/2/3
f 96/2/3 93/2/3 92/2/3
f 97/2/3 93/2/3 96/2/3
f 98/2/3 93/2/3 97/2/3
f 100/2/3 96/2/3 95/2/3
f 100/2/3 97/2/3 96/2/3
f 101/2/3 97/2/3 100/2/3
f 102/2/3 97/2/3 101/2/3
f 103/2/3 100/2/3 99/2/3
f 103/2/3 101/2/3 100/2/3
f 104/2/3 101/2/3 103/2/3
f 106/2/3 103/2/3 99/2/3
f 107/2/3 103/2/3 106/2/3
f 107/2/3 106/2/3 105/2/3
f 108/2/3 103/2/3 107/2/3
f 109/2/3 107/2/3 105/2/3
f 110/2/3 107/2/3 109/2/3
f 111/2/3 107/2/3 110/2/3
f 112/2/3 107/2/3 111/2/3
f 113/1/3 111/1/3 110/1/3
f 114/1/3 111/1/3 113/1/3
f 115/1/4 116/1/4 119/1/4
f 118/1/4 119/1/4 121/1/4
f 119/1/4 116/1/4 122/1/4
f 121/1/4 119/1/4 122/1/4
f 116/2/4 117/2/4 123/2/4
f 122/1/4 116/1/4 123/1/4
f 123/2/4 117/2/4 124/2/4
f 121/1/4 122/1/4 126/1/4
f 120/1/4 121/1/4 126/1/4
f 126/1/4 122/1/4 127/1/4
f 127/1/4 122/1/4 128/1/4
f 125/2/4 126/2/4 130/2/4
f 126/2/4 127/2/4 130/2/4
f 130/2/4 127/2/4 131/2/4
f 131/2/4 127/2/4 132/2/4
f 129/2/4 130/2/4 134/2/4
f 130/2/4 131/2/4 134/2/4
f 134/2/4 131/2/4 135/2/4
f 135/2/4 131/2/4 136/2/4
f 133/2/4 134/2/4 137/2/4
f 134/2/4 135/2/4 137/2/4
f 137/2/4 135/2/4 138/2/4
f 133/2/4 137/2/4 140/2/4
f 140/2/4 137/2/4 141/2/4
f 139/2/4 140/2/4 141/2/4
f 141/2/4 137/2/4 142/2/4
f 139/2/4 141/2/4 143/2/4
f 143/2/4 141/2/4 144/2/4
f 144/2/4 141/2/4 145/2/4
f 145/2/4 141/2/4 146/2/4
f 144/1/4 145/1/4 147/1/4
f 147/1/4 145/1/4 148/1/4
f 149/2/4 150/2/4 151/2/4
f 151/2/4 150/2/4 152/2/4
f 155/2/5 154/2/5 153/2/5
f 156/2/5 154/2/5 155/2/5
f 161/2/5 158/2/5 157/2/5
f 162/2/5 158/2/5 161/2/5
f 163/1/5 160/1/5 159/1/5
f 164/1/5 160/1/5 163/1/5
f 167/2/5 166/2/5 165/2/5
f 168/2/5 166/2/5 167/2/5
f 171/2/5 170/2/5 169/2/5
f 172/2/5 170/2/5 171/2/5
f 175/1/5 174/1/5 173/1/5
f 176/1/5 174/1/5 175/1/5
f 179/1/5 178/1/5 177/1/5
f 180/1/5 178/1/5 179/1/5
f 183/1/5 182/1/5 181/1/5
f 184/1/5 182/1/5 183/1/5
f 187/2/5 186/2/5 185/2/5
f 188/2/5 186/2/5 187/2/5
f 189/2/5 187/2/5 185/2/5
f 190/2/5 186/2/5 188/2/5
f 191/2/5 189/2/5 185/2/5
f 191/2/5 190/2/5 189/2/5
f 192/2/5 186/2/5 190/2/5
f 192/2/5 190/2/5 191/2/5
f 193/1/6 194/1/6 195/1/6
f 195/1/6 194/1/6 196/1/6
f 197/2/6 198/2/6 199/2/6
f 199/2/6 198/2/6 200/2/6
f 201/2/6 202/2/6 203/2/6
f 203/2/6 202/2/6 204/2/6
f 205/2/6 206/2/6 207/2/6
f 207/2/6 206/2/6 208/2/6
f 209/2/6 210/2/6 211/2/6
f 211/2/6 210/2/6 212/2/6
f 213/2/6 214/2/6 215/2/6
f 215/2/6 214/2/6 216/2/6
f 217/1/6 218/1/6 219/1/6
f 219/1/6 218/1/6 220/1/6
f 221/2/6 222/2/6 223/2/6
f 223/2/6 222/2/6 224/2/6
