# MagicaVoxel @ ephtracy

# material
mtllib iPhoneWhite.mtl
usemtl palette

# normals
vn -1 0 0
vn 1 0 0
vn 0 0 1
vn 0 0 -1
vn 0 -1 0
vn 0 1 0

# texcoords
vt 0.923828 0.5
vt 0.958984 0.5
vt 0.970703 0.5
vt 0.974609 0.5
vt 0.978516 0.5
vt 0.982422 0.5
vt 0.986328 0.5

# verts
v -30 0 20
v -30 0 -20
v -30 8 20
v -30 8 -20
v 30 0 20
v 30 0 -20
v 30 8 20
v 30 8 -20
v -30 0 20
v -30 8 20
v 30 0 20
v 30 8 20
v -30 0 -20
v -30 8 -20
v 30 0 -20
v 30 8 -20
v -30 0 20
v 30 0 20
v 2 0 12
v 7 0 12
v 1 0 11
v 2 0 11
v 7 0 11
v 8 0 11
v 0 0 10
v 1 0 10
v 8 0 10
v 9 0 10
v -1 0 9
v 0 0 9
v 9 0 9
v 10 0 9
v 4 0 7
v 5 0 7
v -2 0 6
v -1 0 6
v 4 0 6
v 5 0 6
v -6 0 5
v -2 0 5
v -1 0 5
v -9 0 4
v -6 0 4
v -2 0 4
v -1 0 4
v 0 0 4
v 9 0 4
v 10 0 4
v -13 0 3
v -9 0 3
v -6 0 3
v 0 0 3
v 1 0 3
v 8 0 3
v 9 0 3
v -15 0 2
v -13 0 2
v -9 0 2
v 1 0 2
v 2 0 2
v 7 0 2
v 8 0 2
v -14 0 1
v -13 0 1
v 2 0 1
v 7 0 1
v -17 0 -0
v -15 0 -0
v -14 0 -0
v -13 0 -0
v -18 0 -1
v -17 0 -1
v -15 0 -1
v -14 0 -1
v -13 0 -1
v -12 0 -1
v -18 0 -2
v -17 0 -2
v -13 0 -2
v -12 0 -2
v -11 0 -2
v -12 0 -3
v -11 0 -3
v -10 0 -3
v -11 0 -4
v -10 0 -4
v -9 0 -4
v -10 0 -5
v -9 0 -5
v -8 0 -5
v -1 0 -5
v 4 0 -5
v -9 0 -6
v -8 0 -6
v -7 0 -6
v -2 0 -6
v -1 0 -6
v 4 0 -6
v 5 0 -6
v -8 0 -7
v -7 0 -7
v -6 0 -7
v -3 0 -7
v -2 0 -7
v 5 0 -7
v 6 0 -7
v -7 0 -8
v -6 0 -8
v -5 0 -8
v -4 0 -8
v -3 0 -8
v 6 0 -8
v 7 0 -8
v -6 0 -9
v -5 0 -9
v -4 0 -9
v -5 0 -10
v -4 0 -10
v 1 0 -10
v 2 0 -10
v 1 0 -11
v 2 0 -11
v -4 0 -13
v -3 0 -13
v 6 0 -13
v 7 0 -13
v -3 0 -14
v -2 0 -14
v 5 0 -14
v 6 0 -14
v -2 0 -15
v -1 0 -15
v 4 0 -15
v 5 0 -15
v -1 0 -16
v 4 0 -16
v -30 0 -20
v 30 0 -20
v -30 8 20
v 30 8 20
v -24 8 19
v 19 8 19
v -23 8 18
v 18 8 18
v -28 8 9
v -25 8 9
v -28 8 6
v -25 8 6
v -27 8 4
v -26 8 4
v 22 8 4
v 25 8 4
v 21 8 3
v 22 8 3
v 25 8 3
v 26 8 3
v 20 8 2
v 21 8 2
v 26 8 2
v 27 8 2
v 23 8 1
v 24 8 1
v 23 8 -0
v 24 8 -0
v 20 8 -1
v 21 8 -1
v 26 8 -1
v 27 8 -1
v 21 8 -2
v 22 8 -2
v 25 8 -2
v 26 8 -2
v 22 8 -3
v 25 8 -3
v -27 8 -8
v -26 8 -8
v -23 8 -18
v 18 8 -18
v -24 8 -19
v 19 8 -19
v -30 8 -20
v 30 8 -20

# faces
f 3/2/1 2/2/1 1/2/1
f 4/2/1 2/2/1 3/2/1
f 5/2/2 6/2/2 7/2/2
f 7/2/2 6/2/2 8/2/2
f 11/2/3 10/2/3 9/2/3
f 12/2/3 10/2/3 11/2/3
f 13/2/4 14/2/4 15/2/4
f 15/2/4 14/2/4 16/2/4
f 19/2/5 18/2/5 17/2/5
f 20/2/5 18/2/5 19/2/5
f 21/2/5 19/2/5 17/2/5
f 22/7/5 20/7/5 19/7/5
f 22/2/5 19/2/5 21/2/5
f 23/2/5 18/2/5 20/2/5
f 23/7/5 20/7/5 22/7/5
f 24/2/5 18/2/5 23/2/5
f 25/2/5 21/2/5 17/2/5
f 26/7/5 22/7/5 21/7/5
f 26/2/5 21/2/5 25/2/5
f 26/7/5 23/7/5 22/7/5
f 26/7/5 24/7/5 23/7/5
f 27/2/5 18/2/5 24/2/5
f 27/7/5 24/7/5 26/7/5
f 28/2/5 18/2/5 27/2/5
f 29/2/5 25/2/5 17/2/5
f 30/7/5 26/7/5 25/7/5
f 30/2/5 25/2/5 29/2/5
f 30/7/5 27/7/5 26/7/5
f 30/7/5 28/7/5 27/7/5
f 31/2/5 18/2/5 28/2/5
f 31/7/5 28/7/5 30/7/5
f 32/2/5 18/2/5 31/2/5
f 33/7/5 30/7/5 29/7/5
f 33/7/5 31/7/5 30/7/5
f 33/7/5 32/7/5 31/7/5
f 34/7/5 32/7/5 33/7/5
f 35/2/5 29/2/5 17/2/5
f 36/7/5 33/7/5 29/7/5
f 36/2/5 29/2/5 35/2/5
f 37/2/5 34/2/5 33/2/5
f 37/7/5 33/7/5 36/7/5
f 38/7/5 32/7/5 34/7/5
f 38/2/5 34/2/5 37/2/5
f 39/2/5 35/2/5 17/2/5
f 40/7/5 37/7/5 36/7/5
f 40/2/5 35/2/5 39/2/5
f 40/7/5 36/7/5 35/7/5
f 40/7/5 38/7/5 37/7/5
f 41/7/5 38/7/5 40/7/5
f 42/2/5 39/2/5 17/2/5
f 43/7/5 40/7/5 39/7/5
f 43/2/5 39/2/5 42/2/5
f 44/2/5 41/2/5 40/2/5
f 44/7/5 40/7/5 43/7/5
f 45/7/5 38/7/5 41/7/5
f 45/2/5 41/2/5 44/2/5
f 46/7/5 38/7/5 45/7/5
f 47/7/5 32/7/5 38/7/5
f 47/7/5 38/7/5 46/7/5
f 48/2/5 18/2/5 32/2/5
f 48/7/5 32/7/5 47/7/5
f 49/2/5 42/2/5 17/2/5
f 50/7/5 43/7/5 42/7/5
f 50/2/5 42/2/5 49/2/5
f 51/2/5 44/2/5 43/2/5
f 51/7/5 43/7/5 50/7/5
f 51/2/5 46/2/5 45/2/5
f 51/2/5 45/2/5 44/2/5
f 52/7/5 47/7/5 46/7/5
f 52/2/5 46/2/5 51/2/5
f 53/7/5 47/7/5 52/7/5
f 54/7/5 47/7/5 53/7/5
f 55/2/5 48/2/5 47/2/5
f 55/7/5 47/7/5 54/7/5
f 56/2/5 49/2/5 17/2/5
f 57/7/5 50/7/5 49/7/5
f 57/2/5 49/2/5 56/2/5
f 58/2/5 51/2/5 50/2/5
f 58/7/5 50/7/5 57/7/5
f 58/2/5 52/2/5 51/2/5
f 58/2/5 53/2/5 52/2/5
f 59/7/5 54/7/5 53/7/5
f 59/2/5 53/2/5 58/2/5
f 60/7/5 54/7/5 59/7/5
f 61/7/5 54/7/5 60/7/5
f 62/2/5 55/2/5 54/2/5
f 62/7/5 54/7/5 61/7/5
f 63/7/5 57/7/5 56/7/5
f 64/2/5 58/2/5 57/2/5
f 64/7/5 57/7/5 63/7/5
f 64/2/5 59/2/5 58/2/5
f 64/2/5 60/2/5 59/2/5
f 65/7/5 61/7/5 60/7/5
f 65/2/5 60/2/5 64/2/5
f 66/2/5 62/2/5 61/2/5
f 66/7/5 61/7/5 65/7/5
f 67/2/5 56/2/5 17/2/5
f 68/7/5 63/7/5 56/7/5
f 68/2/5 56/2/5 67/2/5
f 69/2/5 64/2/5 63/2/5
f 69/7/5 63/7/5 68/7/5
f 69/2/5 65/2/5 64/2/5
f 69/2/5 66/2/5 65/2/5
f 70/2/5 66/2/5 69/2/5
f 71/2/5 67/2/5 17/2/5
f 72/7/5 68/7/5 67/7/5
f 72/2/5 67/2/5 71/2/5
f 73/2/5 69/2/5 68/2/5
f 73/7/5 68/7/5 72/7/5
f 74/7/5 70/7/5 69/7/5
f 74/2/5 69/2/5 73/2/5
f 75/2/5 66/2/5 70/2/5
f 75/7/5 70/7/5 74/7/5
f 76/2/5 66/2/5 75/2/5
f 77/2/5 71/2/5 17/2/5
f 77/7/5 72/7/5 71/7/5
f 78/2/5 74/2/5 73/2/5
f 78/7/5 72/7/5 77/7/5
f 78/2/5 73/2/5 72/2/5
f 78/2/5 75/2/5 74/2/5
f 79/7/5 76/7/5 75/7/5
f 79/2/5 75/2/5 78/2/5
f 80/2/5 66/2/5 76/2/5
f 80/7/5 76/7/5 79/7/5
f 81/2/5 66/2/5 80/2/5
f 82/2/5 79/2/5 78/2/5
f 82/2/5 78/2/5 77/2/5
f 82/7/5 81/7/5 80/7/5
f 82/2/5 80/2/5 79/2/5
f 83/2/5 66/2/5 81/2/5
f 83/7/5 81/7/5 82/7/5
f 84/2/5 66/2/5 83/2/5
f 85/2/5 83/2/5 82/2/5
f 85/7/5 84/7/5 83/7/5
f 86/2/5 66/2/5 84/2/5
f 86/7/5 84/7/5 85/7/5
f 87/2/5 66/2/5 86/2/5
f 88/2/5 86/2/5 85/2/5
f 88/7/5 87/7/5 86/7/5
f 89/2/5 66/2/5 87/2/5
f 89/7/5 87/7/5 88/7/5
f 90/2/5 66/2/5 89/2/5
f 91/2/5 66/2/5 90/2/5
f 92/2/5 66/2/5 91/2/5
f 93/2/5 89/2/5 88/2/5
f 93/7/5 90/7/5 89/7/5
f 94/2/5 91/2/5 90/2/5
f 94/7/5 90/7/5 93/7/5
f 95/2/5 91/2/5 94/2/5
f 96/2/5 91/2/5 95/2/5
f 97/7/5 92/7/5 91/7/5
f 97/2/5 91/2/5 96/2/5
f 98/2/5 66/2/5 92/2/5
f 98/7/5 92/7/5 97/7/5
f 99/2/5 66/2/5 98/2/5
f 100/2/5 94/2/5 93/2/5
f 100/7/5 95/7/5 94/7/5
f 101/2/5 96/2/5 95/2/5
f 101/7/5 95/7/5 100/7/5
f 102/2/5 96/2/5 101/2/5
f 103/2/5 96/2/5 102/2/5
f 104/7/5 97/7/5 96/7/5
f 104/2/5 96/2/5 103/2/5
f 104/7/5 99/7/5 98/7/5
f 104/7/5 98/7/5 97/7/5
f 105/2/5 66/2/5 99/2/5
f 105/7/5 99/7/5 104/7/5
f 106/2/5 66/2/5 105/2/5
f 107/7/5 102/7/5 101/7/5
f 107/2/5 101/2/5 100/2/5
f 108/2/5 103/2/5 102/2/5
f 108/7/5 102/7/5 107/7/5
f 109/2/5 103/2/5 108/2/5
f 110/2/5 103/2/5 109/2/5
f 111/7/5 104/7/5 103/7/5
f 111/2/5 103/2/5 110/2/5
f 111/7/5 106/7/5 105/7/5
f 111/7/5 105/7/5 104/7/5
f 112/2/5 66/2/5 106/2/5
f 112/7/5 106/7/5 111/7/5
f 113/2/5 62/2/5 66/2/5
f 113/2/5 66/2/5 112/2/5
f 114/7/5 109/7/5 108/7/5
f 114/2/5 108/2/5 107/2/5
f 115/2/5 110/2/5 109/2/5
f 115/7/5 109/7/5 114/7/5
f 116/7/5 112/7/5 111/7/5
f 116/2/5 110/2/5 115/2/5
f 116/7/5 111/7/5 110/7/5
f 116/7/5 113/7/5 112/7/5
f 117/2/5 115/2/5 114/2/5
f 117/7/5 116/7/5 115/7/5
f 118/7/5 113/7/5 116/7/5
f 118/7/5 116/7/5 117/7/5
f 119/7/5 113/7/5 118/7/5
f 120/7/5 113/7/5 119/7/5
f 121/7/5 119/7/5 118/7/5
f 121/2/5 120/2/5 119/2/5
f 122/7/5 113/7/5 120/7/5
f 122/2/5 120/2/5 121/2/5
f 123/2/5 118/2/5 117/2/5
f 123/7/5 121/7/5 118/7/5
f 123/7/5 122/7/5 121/7/5
f 124/7/5 122/7/5 123/7/5
f 125/7/5 113/7/5 122/7/5
f 125/7/5 122/7/5 124/7/5
f 126/2/5 62/2/5 113/2/5
f 126/7/5 113/7/5 125/7/5
f 127/7/5 125/7/5 124/7/5
f 127/2/5 124/2/5 123/2/5
f 128/7/5 125/7/5 127/7/5
f 129/7/5 125/7/5 128/7/5
f 130/2/5 126/2/5 125/2/5
f 130/7/5 125/7/5 129/7/5
f 131/7/5 129/7/5 128/7/5
f 131/2/5 128/2/5 127/2/5
f 132/7/5 129/7/5 131/7/5
f 133/7/5 129/7/5 132/7/5
f 134/2/5 130/2/5 129/2/5
f 134/7/5 129/7/5 133/7/5
f 135/7/5 133/7/5 132/7/5
f 135/2/5 132/2/5 131/2/5
f 136/2/5 134/2/5 133/2/5
f 136/7/5 133/7/5 135/7/5
f 137/2/5 117/2/5 114/2/5
f 137/2/5 77/2/5 17/2/5
f 137/2/5 136/2/5 135/2/5
f 137/2/5 135/2/5 131/2/5
f 137/2/5 131/2/5 127/2/5
f 137/2/5 82/2/5 77/2/5
f 137/2/5 127/2/5 123/2/5
f 137/2/5 123/2/5 117/2/5
f 137/2/5 85/2/5 82/2/5
f 137/2/5 88/2/5 85/2/5
f 137/2/5 114/2/5 107/2/5
f 137/2/5 93/2/5 88/2/5
f 137/2/5 100/2/5 93/2/5
f 137/2/5 107/2/5 100/2/5
f 138/2/5 55/2/5 62/2/5
f 138/2/5 136/2/5 137/2/5
f 138/2/5 134/2/5 136/2/5
f 138/2/5 62/2/5 126/2/5
f 138/2/5 126/2/5 130/2/5
f 138/2/5 48/2/5 55/2/5
f 138/2/5 18/2/5 48/2/5
f 138/2/5 130/2/5 134/2/5
f 139/2/6 140/2/6 141/2/6
f 141/2/6 140/2/6 142/2/6
f 141/6/6 142/6/6 143/6/6
f 143/6/6 142/6/6 144/6/6
f 139/2/6 141/2/6 145/2/6
f 145/2/6 141/2/6 146/2/6
f 139/2/6 145/2/6 147/2/6
f 145/5/6 146/5/6 147/5/6
f 146/2/6 141/2/6 148/2/6
f 147/5/6 146/5/6 148/5/6
f 147/2/6 148/2/6 149/2/6
f 149/2/6 148/2/6 150/2/6
f 142/2/6 140/2/6 151/2/6
f 151/2/6 140/2/6 152/2/6
f 142/2/6 151/2/6 153/2/6
f 151/3/6 152/3/6 154/3/6
f 153/2/6 151/2/6 154/2/6
f 152/2/6 140/2/6 155/2/6
f 154/3/6 152/3/6 155/3/6
f 155/2/6 140/2/6 156/2/6
f 142/2/6 153/2/6 157/2/6
f 153/3/6 154/3/6 158/3/6
f 157/2/6 153/2/6 158/2/6
f 154/3/6 155/3/6 158/3/6
f 155/3/6 156/3/6 158/3/6
f 156/2/6 140/2/6 159/2/6
f 158/3/6 156/3/6 159/3/6
f 159/2/6 140/2/6 160/2/6
f 157/3/6 158/3/6 161/3/6
f 158/3/6 159/3/6 161/3/6
f 159/3/6 160/3/6 161/3/6
f 161/3/6 160/3/6 162/3/6
f 157/3/6 161/3/6 163/3/6
f 161/2/6 162/2/6 163/2/6
f 162/3/6 160/3/6 164/3/6
f 163/2/6 162/2/6 164/2/6
f 142/2/6 157/2/6 165/2/6
f 157/3/6 163/3/6 165/3/6
f 163/3/6 164/3/6 165/3/6
f 165/3/6 164/3/6 166/3/6
f 164/3/6 160/3/6 167/3/6
f 166/3/6 164/3/6 167/3/6
f 160/2/6 140/2/6 168/2/6
f 167/3/6 160/3/6 168/3/6
f 165/2/6 166/2/6 169/2/6
f 166/3/6 167/3/6 169/3/6
f 169/3/6 167/3/6 170/3/6
f 170/3/6 167/3/6 171/3/6
f 167/2/6 168/2/6 172/2/6
f 171/3/6 167/3/6 172/3/6
f 170/3/6 171/3/6 173/3/6
f 169/2/6 170/2/6 173/2/6
f 171/2/6 172/2/6 174/2/6
f 173/3/6 171/3/6 174/3/6
f 147/2/6 149/2/6 175/2/6
f 149/4/6 150/4/6 175/4/6
f 150/2/6 148/2/6 176/2/6
f 175/4/6 150/4/6 176/4/6
f 141/6/6 143/6/6 177/6/6
f 143/1/6 144/1/6 177/1/6
f 144/6/6 142/6/6 178/6/6
f 177/1/6 144/1/6 178/1/6
f 141/6/6 177/6/6 179/6/6
f 176/2/6 148/2/6 179/2/6
f 177/6/6 178/6/6 179/6/6
f 175/2/6 176/2/6 179/2/6
f 148/2/6 141/2/6 179/2/6
f 178/6/6 142/6/6 180/6/6
f 179/6/6 178/6/6 180/6/6
f 169/2/6 173/2/6 180/2/6
f 165/2/6 169/2/6 180/2/6
f 142/2/6 165/2/6 180/2/6
f 173/2/6 174/2/6 180/2/6
f 175/2/6 179/2/6 181/2/6
f 147/2/6 175/2/6 181/2/6
f 179/2/6 180/2/6 181/2/6
f 139/2/6 147/2/6 181/2/6
f 180/2/6 174/2/6 182/2/6
f 181/2/6 180/2/6 182/2/6
f 174/2/6 172/2/6 182/2/6
f 168/2/6 140/2/6 182/2/6
f 172/2/6 168/2/6 182/2/6
