# MagicaVoxel @ ephtracy

# material
mtllib Light.mtl
usemtl palette

# normals
vn -1 0 0
vn 1 0 0
vn 0 0 1
vn 0 0 -1
vn 0 -1 0
vn 0 1 0

# texcoords
vt 0.0214844 0.5
vt 0.841797 0.5
vt 0.880859 0.5
vt 0.958984 0.5
vt 0.994141 0.5

# verts
v -7 1 2
v -7 1 -3
v -7 2 2
v -7 2 -3
v -6 1 4
v -6 1 2
v -6 1 -3
v -6 1 -5
v -6 2 4
v -6 2 2
v -6 2 -3
v -6 2 -5
v -6 3 2
v -6 3 -3
v -5 0 2
v -5 0 -3
v -5 1 5
v -5 1 4
v -5 1 2
v -5 1 -3
v -5 1 -5
v -5 1 -6
v -5 2 5
v -5 2 4
v -5 2 2
v -5 2 -3
v -5 2 -5
v -5 2 -6
v -5 3 4
v -5 3 2
v -5 3 -3
v -5 3 -5
v -5 4 2
v -5 4 -3
v -4 0 3
v -4 0 2
v -4 0 -3
v -4 0 -4
v -4 1 6
v -4 1 5
v -4 1 3
v -4 1 2
v -4 1 -3
v -4 1 -4
v -4 1 -6
v -4 1 -7
v -4 2 6
v -4 2 5
v -4 2 4
v -4 2 -5
v -4 2 -6
v -4 2 -7
v -4 3 5
v -4 3 4
v -4 3 3
v -4 3 2
v -4 3 -3
v -4 3 -4
v -4 3 -5
v -4 3 -6
v -4 4 3
v -4 4 2
v -4 4 -3
v -4 4 -4
v -4 5 2
v -4 5 -3
v -3 0 4
v -3 0 3
v -3 0 -4
v -3 0 -5
v -3 1 4
v -3 1 3
v -3 1 -4
v -3 1 -5
v -3 3 4
v -3 3 3
v -3 3 -4
v -3 3 -5
v -3 4 4
v -3 4 3
v -3 4 2
v -3 4 -3
v -3 4 -4
v -3 4 -5
v -3 5 3
v -3 5 2
v -3 5 1
v -3 5 -2
v -3 5 -3
v -3 5 -4
v -3 6 1
v -3 6 -2
v -2 0 5
v -2 0 4
v -2 0 -5
v -2 0 -6
v -2 1 7
v -2 1 6
v -2 1 5
v -2 1 4
v -2 1 -5
v -2 1 -6
v -2 1 -7
v -2 1 -8
v -2 2 7
v -2 2 6
v -2 2 5
v -2 2 -6
v -2 2 -7
v -2 2 -8
v -2 3 6
v -2 3 5
v -2 3 4
v -2 3 -5
v -2 3 -6
v -2 3 -7
v -2 4 5
v -2 4 4
v -2 4 3
v -2 4 -4
v -2 4 -5
v -2 4 -6
v -2 5 4
v -2 5 3
v -2 5 2
v -2 5 1
v -2 5 -2
v -2 5 -3
v -2 5 -4
v -2 5 -5
v -2 6 2
v -2 6 1
v -2 6 -2
v -2 6 -3
v -1 5 3
v -1 5 2
v -1 5 -3
v -1 5 -4
v -1 6 3
v -1 6 2
v -1 6 -3
v -1 6 -4
v 2 5 3
v 2 5 2
v 2 5 -3
v 2 5 -4
v 2 6 3
v 2 6 2
v 2 6 -3
v 2 6 -4
v 3 0 5
v 3 0 4
v 3 0 -5
v 3 0 -6
v 3 1 7
v 3 1 6
v 3 1 5
v 3 1 4
v 3 1 -5
v 3 1 -6
v 3 1 -7
v 3 1 -8
v 3 2 7
v 3 2 6
v 3 2 5
v 3 2 -6
v 3 2 -7
v 3 2 -8
v 3 3 6
v 3 3 5
v 3 3 4
v 3 3 -5
v 3 3 -6
v 3 3 -7
v 3 4 5
v 3 4 4
v 3 4 3
v 3 4 -4
v 3 4 -5
v 3 4 -6
v 3 5 4
v 3 5 3
v 3 5 2
v 3 5 1
v 3 5 -2
v 3 5 -3
v 3 5 -4
v 3 5 -5
v 3 6 2
v 3 6 1
v 3 6 -2
v 3 6 -3
v 4 0 4
v 4 0 3
v 4 0 -4
v 4 0 -5
v 4 1 4
v 4 1 3
v 4 1 -4
v 4 1 -5
v 4 3 4
v 4 3 3
v 4 3 -4
v 4 3 -5
v 4 4 4
v 4 4 3
v 4 4 2
v 4 4 -3
v 4 4 -4
v 4 4 -5
v 4 5 3
v 4 5 2
v 4 5 1
v 4 5 -2
v 4 5 -3
v 4 5 -4
v 4 6 1
v 4 6 -2
v 5 0 3
v 5 0 2
v 5 0 -3
v 5 0 -4
v 5 1 6
v 5 1 5
v 5 1 3
v 5 1 2
v 5 1 -3
v 5 1 -4
v 5 1 -6
v 5 1 -7
v 5 2 6
v 5 2 5
v 5 2 4
v 5 2 -5
v 5 2 -6
v 5 2 -7
v 5 3 5
v 5 3 4
v 5 3 3
v 5 3 2
v 5 3 -3
v 5 3 -4
v 5 3 -5
v 5 3 -6
v 5 4 3
v 5 4 2
v 5 4 -3
v 5 4 -4
v 5 5 2
v 5 5 -3
v 6 0 2
v 6 0 -3
v 6 1 5
v 6 1 4
v 6 1 2
v 6 1 -3
v 6 1 -5
v 6 1 -6
v 6 2 5
v 6 2 4
v 6 2 2
v 6 2 -3
v 6 2 -5
v 6 2 -6
v 6 3 4
v 6 3 2
v 6 3 -3
v 6 3 -5
v 6 4 2
v 6 4 -3
v 7 1 4
v 7 1 2
v 7 1 -3
v 7 1 -5
v 7 2 4
v 7 2 2
v 7 2 -3
v 7 2 -5
v 7 3 2
v 7 3 -3
v 8 1 2
v 8 1 -3
v 8 2 2
v 8 2 -3
v -2 1 7
v -2 2 7
v 3 1 7
v 3 2 7
v -4 1 6
v -4 2 6
v -2 1 6
v -2 2 6
v -2 3 6
v 3 1 6
v 3 2 6
v 3 3 6
v 5 1 6
v 5 2 6
v -5 1 5
v -5 2 5
v -4 1 5
v -4 2 5
v -4 3 5
v -2 0 5
v -2 1 5
v -2 2 5
v -2 3 5
v -2 4 5
v 3 0 5
v 3 1 5
v 3 2 5
v 3 3 5
v 3 4 5
v 5 1 5
v 5 2 5
v 5 3 5
v 6 1 5
v 6 2 5
v -6 1 4
v -6 2 4
v -5 1 4
v -5 2 4
v -5 3 4
v -4 2 4
v -4 3 4
v -3 0 4
v -3 1 4
v -3 3 4
v -3 4 4
v -2 0 4
v -2 1 4
v -2 3 4
v -2 4 4
v -2 5 4
v 3 0 4
v 3 1 4
v 3 3 4
v 3 4 4
v 3 5 4
v 4 0 4
v 4 1 4
v 4 3 4
v 4 4 4
v 5 2 4
v 5 3 4
v 6 1 4
v 6 2 4
v 6 3 4
v 7 1 4
v 7 2 4
v -4 0 3
v -4 1 3
v -4 3 3
v -4 4 3
v -3 0 3
v -3 1 3
v -3 3 3
v -3 4 3
v -3 5 3
v -2 4 3
v -2 5 3
v -1 5 3
v -1 6 3
v 2 5 3
v 2 6 3
v 3 4 3
v 3 5 3
v 4 0 3
v 4 1 3
v 4 3 3
v 4 4 3
v 4 5 3
v 5 0 3
v 5 1 3
v 5 3 3
v 5 4 3
v -7 1 2
v -7 2 2
v -6 1 2
v -6 2 2
v -6 3 2
v -5 0 2
v -5 1 2
v -5 2 2
v -5 3 2
v -5 4 2
v -4 0 2
v -4 1 2
v -4 3 2
v -4 4 2
v -4 5 2
v -3 4 2
v -3 5 2
v -2 5 2
v -2 6 2
v -1 5 2
v -1 6 2
v 2 5 2
v 2 6 2
v 3 5 2
v 3 6 2
v 4 4 2
v 4 5 2
v 5 0 2
v 5 1 2
v 5 3 2
v 5 4 2
v 5 5 2
v 6 0 2
v 6 1 2
v 6 2 2
v 6 3 2
v 6 4 2
v 7 1 2
v 7 2 2
v 7 3 2
v 8 1 2
v 8 2 2
v -3 5 1
v -3 6 1
v -2 5 1
v -2 6 1
v 3 5 1
v 3 6 1
v 4 5 1
v 4 6 1
v -3 5 -2
v -3 6 -2
v -2 5 -2
v -2 6 -2
v 3 5 -2
v 3 6 -2
v 4 5 -2
v 4 6 -2
v -7 1 -3
v -7 2 -3
v -6 1 -3
v -6 2 -3
v -6 3 -3
v -5 0 -3
v -5 1 -3
v -5 2 -3
v -5 3 -3
v -5 4 -3
v -4 0 -3
v -4 1 -3
v -4 3 -3
v -4 4 -3
v -4 5 -3
v -3 4 -3
v -3 5 -3
v -2 5 -3
v -2 6 -3
v -1 5 -3
v -1 6 -3
v 2 5 -3
v 2 6 -3
v 3 5 -3
v 3 6 -3
v 4 4 -3
v 4 5 -3
v 5 0 -3
v 5 1 -3
v 5 3 -3
v 5 4 -3
v 5 5 -3
v 6 0 -3
v 6 1 -3
v 6 2 -3
v 6 3 -3
v 6 4 -3
v 7 1 -3
v 7 2 -3
v 7 3 -3
v 8 1 -3
v 8 2 -3
v -4 0 -4
v -4 1 -4
v -4 3 -4
v -4 4 -4
v -3 0 -4
v -3 1 -4
v -3 3 -4
v -3 4 -4
v -3 5 -4
v -2 4 -4
v -2 5 -4
v -1 5 -4
v -1 6 -4
v 2 5 -4
v 2 6 -4
v 3 4 -4
v 3 5 -4
v 4 0 -4
v 4 1 -4
v 4 3 -4
v 4 4 -4
v 4 5 -4
v 5 0 -4
v 5 1 -4
v 5 3 -4
v 5 4 -4
v -6 1 -5
v -6 2 -5
v -5 1 -5
v -5 2 -5
v -5 3 -5
v -4 2 -5
v -4 3 -5
v -3 0 -5
v -3 1 -5
v -3 3 -5
v -3 4 -5
v -2 0 -5
v -2 1 -5
v -2 3 -5
v -2 4 -5
v -2 5 -5
v 3 0 -5
v 3 1 -5
v 3 3 -5
v 3 4 -5
v 3 5 -5
v 4 0 -5
v 4 1 -5
v 4 3 -5
v 4 4 -5
v 5 2 -5
v 5 3 -5
v 6 1 -5
v 6 2 -5
v 6 3 -5
v 7 1 -5
v 7 2 -5
v -5 1 -6
v -5 2 -6
v -4 1 -6
v -4 2 -6
v -4 3 -6
v -2 0 -6
v -2 1 -6
v -2 2 -6
v -2 3 -6
v -2 4 -6
v 3 0 -6
v 3 1 -6
v 3 2 -6
v 3 3 -6
v 3 4 -6
v 5 1 -6
v 5 2 -6
v 5 3 -6
v 6 1 -6
v 6 2 -6
v -4 1 -7
v -4 2 -7
v -2 1 -7
v -2 2 -7
v -2 3 -7
v 3 1 -7
v 3 2 -7
v 3 3 -7
v 5 1 -7
v 5 2 -7
v -2 1 -8
v -2 2 -8
v 3 1 -8
v 3 2 -8
v -2 0 5
v 3 0 5
v -3 0 4
v -2 0 4
v 3 0 4
v 4 0 4
v -4 0 3
v -3 0 3
v 4 0 3
v 5 0 3
v -5 0 2
v -4 0 2
v 5 0 2
v 6 0 2
v -5 0 -3
v -4 0 -3
v 5 0 -3
v 6 0 -3
v -4 0 -4
v -3 0 -4
v 4 0 -4
v 5 0 -4
v -3 0 -5
v -2 0 -5
v 3 0 -5
v 4 0 -5
v -2 0 -6
v 3 0 -6
v -2 1 7
v 3 1 7
v -4 1 6
v -2 1 6
v 3 1 6
v 5 1 6
v -5 1 5
v -4 1 5
v -2 1 5
v 3 1 5
v 5 1 5
v 6 1 5
v -6 1 4
v -5 1 4
v -3 1 4
v -2 1 4
v 3 1 4
v 4 1 4
v 6 1 4
v 7 1 4
v -4 1 3
v -3 1 3
v 4 1 3
v 5 1 3
v -7 1 2
v -6 1 2
v -5 1 2
v -4 1 2
v 5 1 2
v 6 1 2
v 7 1 2
v 8 1 2
v -7 1 -3
v -6 1 -3
v -5 1 -3
v -4 1 -3
v 5 1 -3
v 6 1 -3
v 7 1 -3
v 8 1 -3
v -4 1 -4
v -3 1 -4
v 4 1 -4
v 5 1 -4
v -6 1 -5
v -5 1 -5
v -3 1 -5
v -2 1 -5
v 3 1 -5
v 4 1 -5
v 6 1 -5
v 7 1 -5
v -5 1 -6
v -4 1 -6
v -2 1 -6
v 3 1 -6
v 5 1 -6
v 6 1 -6
v -4 1 -7
v -2 1 -7
v 3 1 -7
v 5 1 -7
v -2 1 -8
v 3 1 -8
v -2 2 7
v 3 2 7
v -4 2 6
v -2 2 6
v 3 2 6
v 5 2 6
v -5 2 5
v -4 2 5
v -2 2 5
v 3 2 5
v 5 2 5
v 6 2 5
v -6 2 4
v -5 2 4
v -4 2 4
v 5 2 4
v 6 2 4
v 7 2 4
v -7 2 2
v -6 2 2
v -5 2 2
v 6 2 2
v 7 2 2
v 8 2 2
v -7 2 -3
v -6 2 -3
v -5 2 -3
v 6 2 -3
v 7 2 -3
v 8 2 -3
v -6 2 -5
v -5 2 -5
v -4 2 -5
v 5 2 -5
v 6 2 -5
v 7 2 -5
v -5 2 -6
v -4 2 -6
v -2 2 -6
v 3 2 -6
v 5 2 -6
v 6 2 -6
v -4 2 -7
v -2 2 -7
v 3 2 -7
v 5 2 -7
v -2 2 -8
v 3 2 -8
v -2 3 6
v 3 3 6
v -4 3 5
v -2 3 5
v 3 3 5
v 5 3 5
v -5 3 4
v -4 3 4
v -3 3 4
v -2 3 4
v 3 3 4
v 4 3 4
v 5 3 4
v 6 3 4
v -4 3 3
v -3 3 3
v 4 3 3
v 5 3 3
v -6 3 2
v -5 3 2
v -4 3 2
v 5 3 2
v 6 3 2
v 7 3 2
v -6 3 -3
v -5 3 -3
v -4 3 -3
v 5 3 -3
v 6 3 -3
v 7 3 -3
v -4 3 -4
v -3 3 -4
v 4 3 -4
v 5 3 -4
v -5 3 -5
v -4 3 -5
v -3 3 -5
v -2 3 -5
v 3 3 -5
v 4 3 -5
v 5 3 -5
v 6 3 -5
v -4 3 -6
v -2 3 -6
v 3 3 -6
v 5 3 -6
v -2 3 -7
v 3 3 -7
v -2 4 5
v 3 4 5
v -3 4 4
v -2 4 4
v 3 4 4
v 4 4 4
v -4 4 3
v -3 4 3
v -2 4 3
v 3 4 3
v 4 4 3
v 5 4 3
v -5 4 2
v -4 4 2
v -3 4 2
v 4 4 2
v 5 4 2
v 6 4 2
v -5 4 -3
v -4 4 -3
v -3 4 -3
v 4 4 -3
v 5 4 -3
v 6 4 -3
v -4 4 -4
v -3 4 -4
v -2 4 -4
v 3 4 -4
v 4 4 -4
v 5 4 -4
v -3 4 -5
v -2 4 -5
v 3 4 -5
v 4 4 -5
v -2 4 -6
v 3 4 -6
v -2 5 4
v 3 5 4
v -3 5 3
v -2 5 3
v -1 5 3
v 2 5 3
v 3 5 3
v 4 5 3
v -4 5 2
v -3 5 2
v -2 5 2
v -1 5 2
v 2 5 2
v 3 5 2
v 4 5 2
v 5 5 2
v -3 5 1
v -2 5 1
v 3 5 1
v 4 5 1
v -3 5 -2
v -2 5 -2
v 3 5 -2
v 4 5 -2
v -4 5 -3
v -3 5 -3
v -2 5 -3
v -1 5 -3
v 2 5 -3
v 3 5 -3
v 4 5 -3
v 5 5 -3
v -3 5 -4
v -2 5 -4
v -1 5 -4
v 2 5 -4
v 3 5 -4
v 4 5 -4
v -2 5 -5
v 3 5 -5
v -1 6 3
v 2 6 3
v -2 6 2
v -1 6 2
v 2 6 2
v 3 6 2
v -3 6 1
v -2 6 1
v 3 6 1
v 4 6 1
v -3 6 -2
v -2 6 -2
v 3 6 -2
v 4 6 -2
v -2 6 -3
v -1 6 -3
v 2 6 -3
v 3 6 -3
v -1 6 -4
v 2 6 -4

# faces
f 3/5/1 2/5/1 1/5/1
f 4/5/1 2/5/1 3/5/1
f 9/5/1 6/5/1 5/5/1
f 10/5/1 6/5/1 9/5/1
f 11/5/1 8/5/1 7/5/1
f 12/5/1 8/5/1 11/5/1
f 13/5/1 11/5/1 10/5/1
f 14/5/1 11/5/1 13/5/1
f 19/1/1 16/1/1 15/1/1
f 20/1/1 16/1/1 19/1/1
f 23/5/1 18/5/1 17/5/1
f 24/5/1 18/5/1 23/5/1
f 27/5/1 22/5/1 21/5/1
f 28/5/1 22/5/1 27/5/1
f 29/5/1 25/5/1 24/5/1
f 30/5/1 25/5/1 29/5/1
f 31/5/1 27/5/1 26/5/1
f 32/5/1 27/5/1 31/5/1
f 33/5/1 31/5/1 30/5/1
f 34/5/1 31/5/1 33/5/1
f 41/1/1 36/1/1 35/1/1
f 42/1/1 36/1/1 41/1/1
f 43/1/1 38/1/1 37/1/1
f 44/1/1 38/1/1 43/1/1
f 47/5/1 40/5/1 39/5/1
f 48/5/1 40/5/1 47/5/1
f 51/5/1 46/5/1 45/5/1
f 52/5/1 46/5/1 51/5/1
f 53/5/1 49/5/1 48/5/1
f 54/5/1 49/5/1 53/5/1
f 59/5/1 51/5/1 50/5/1
f 60/5/1 51/5/1 59/5/1
f 61/5/1 56/5/1 55/5/1
f 62/5/1 56/5/1 61/5/1
f 63/5/1 58/5/1 57/5/1
f 64/5/1 58/5/1 63/5/1
f 65/5/1 63/5/1 62/5/1
f 66/5/1 63/5/1 65/5/1
f 71/1/1 68/1/1 67/1/1
f 72/1/1 68/1/1 71/1/1
f 73/1/1 70/1/1 69/1/1
f 74/1/1 70/1/1 73/1/1
f 79/5/1 76/5/1 75/5/1
f 80/5/1 76/5/1 79/5/1
f 83/5/1 78/5/1 77/5/1
f 84/5/1 78/5/1 83/5/1
f 85/5/1 81/5/1 80/5/1
f 86/5/1 81/5/1 85/5/1
f 89/5/1 83/5/1 82/5/1
f 90/5/1 83/5/1 89/5/1
f 91/5/1 88/5/1 87/5/1
f 92/5/1 88/5/1 91/5/1
f 99/1/1 94/1/1 93/1/1
f 100/1/1 94/1/1 99/1/1
f 101/1/1 96/1/1 95/1/1
f 102/1/1 96/1/1 101/1/1
f 105/5/1 98/5/1 97/5/1
f 106/5/1 98/5/1 105/5/1
f 109/5/1 104/5/1 103/5/1
f 110/5/1 104/5/1 109/5/1
f 111/5/1 107/5/1 106/5/1
f 112/5/1 107/5/1 111/5/1
f 115/5/1 109/5/1 108/5/1
f 116/5/1 109/5/1 115/5/1
f 117/5/1 113/5/1 112/5/1
f 118/5/1 113/5/1 117/5/1
f 121/5/1 115/5/1 114/5/1
f 122/5/1 115/5/1 121/5/1
f 123/5/1 119/5/1 118/5/1
f 124/5/1 119/5/1 123/5/1
f 129/5/1 121/5/1 120/5/1
f 130/5/1 121/5/1 129/5/1
f 131/5/1 126/5/1 125/5/1
f 132/5/1 126/5/1 131/5/1
f 133/5/1 128/5/1 127/5/1
f 134/5/1 128/5/1 133/5/1
f 139/5/1 136/5/1 135/5/1
f 140/5/1 136/5/1 139/5/1
f 141/5/1 138/5/1 137/5/1
f 142/5/1 138/5/1 141/5/1
f 143/5/2 144/5/2 147/5/2
f 147/5/2 144/5/2 148/5/2
f 145/5/2 146/5/2 149/5/2
f 149/5/2 146/5/2 150/5/2
f 151/1/2 152/1/2 157/1/2
f 157/1/2 152/1/2 158/1/2
f 153/1/2 154/1/2 159/1/2
f 159/1/2 154/1/2 160/1/2
f 155/5/2 156/5/2 163/5/2
f 163/5/2 156/5/2 164/5/2
f 161/5/2 162/5/2 167/5/2
f 167/5/2 162/5/2 168/5/2
f 164/5/2 165/5/2 169/5/2
f 169/5/2 165/5/2 170/5/2
f 166/5/2 167/5/2 173/5/2
f 173/5/2 167/5/2 174/5/2
f 170/5/2 171/5/2 175/5/2
f 175/5/2 171/5/2 176/5/2
f 172/5/2 173/5/2 179/5/2
f 179/5/2 173/5/2 180/5/2
f 176/5/2 177/5/2 181/5/2
f 181/5/2 177/5/2 182/5/2
f 178/5/2 179/5/2 187/5/2
f 187/5/2 179/5/2 188/5/2
f 183/5/2 184/5/2 189/5/2
f 189/5/2 184/5/2 190/5/2
f 185/5/2 186/5/2 191/5/2
f 191/5/2 186/5/2 192/5/2
f 193/1/2 194/1/2 197/1/2
f 197/1/2 194/1/2 198/1/2
f 195/1/2 196/1/2 199/1/2
f 199/1/2 196/1/2 200/1/2
f 201/5/2 202/5/2 205/5/2
f 205/5/2 202/5/2 206/5/2
f 203/5/2 204/5/2 209/5/2
f 209/5/2 204/5/2 210/5/2
f 206/5/2 207/5/2 211/5/2
f 211/5/2 207/5/2 212/5/2
f 208/5/2 209/5/2 215/5/2
f 215/5/2 209/5/2 216/5/2
f 213/5/2 214/5/2 217/5/2
f 217/5/2 214/5/2 218/5/2
f 219/1/2 220/1/2 225/1/2
f 225/1/2 220/1/2 226/1/2
f 221/1/2 222/1/2 227/1/2
f 227/1/2 222/1/2 228/1/2
f 223/5/2 224/5/2 231/5/2
f 231/5/2 224/5/2 232/5/2
f 229/5/2 230/5/2 235/5/2
f 235/5/2 230/5/2 236/5/2
f 232/5/2 233/5/2 237/5/2
f 237/5/2 233/5/2 238/5/2
f 234/5/2 235/5/2 243/5/2
f 243/5/2 235/5/2 244/5/2
f 239/5/2 240/5/2 245/5/2
f 245/5/2 240/5/2 246/5/2
f 241/5/2 242/5/2 247/5/2
f 247/5/2 242/5/2 248/5/2
f 246/5/2 247/5/2 249/5/2
f 249/5/2 247/5/2 250/5/2
f 251/1/2 252/1/2 255/1/2
f 255/1/2 252/1/2 256/1/2
f 253/5/2 254/5/2 259/5/2
f 259/5/2 254/5/2 260/5/2
f 257/5/2 258/5/2 263/5/2
f 263/5/2 258/5/2 264/5/2
f 260/5/2 261/5/2 265/5/2
f 265/5/2 261/5/2 266/5/2
f 262/5/2 263/5/2 267/5/2
f 267/5/2 263/5/2 268/5/2
f 266/5/2 267/5/2 269/5/2
f 269/5/2 267/5/2 270/5/2
f 271/5/2 272/5/2 275/5/2
f 275/5/2 272/5/2 276/5/2
f 273/5/2 274/5/2 277/5/2
f 277/5/2 274/5/2 278/5/2
f 276/5/2 277/5/2 279/5/2
f 279/5/2 277/5/2 280/5/2
f 281/5/2 282/5/2 283/5/2
f 283/5/2 282/5/2 284/5/2
f 287/5/3 286/5/3 285/5/3
f 288/5/3 286/5/3 287/5/3
f 291/5/3 290/5/3 289/5/3
f 292/5/3 290/5/3 291/5/3
f 295/5/3 293/5/3 292/5/3
f 296/5/3 293/5/3 295/5/3
f 297/5/3 295/5/3 294/5/3
f 298/5/3 295/5/3 297/5/3
f 301/5/3 300/5/3 299/5/3
f 302/5/3 300/5/3 301/5/3
f 306/5/3 303/5/3 302/5/3
f 307/5/3 303/5/3 306/5/3
f 309/1/3 305/1/3 304/1/3
f 310/1/3 305/1/3 309/1/3
f 312/5/3 308/5/3 307/5/3
f 313/5/3 308/5/3 312/5/3
f 315/5/3 312/5/3 311/5/3
f 316/5/3 312/5/3 315/5/3
f 317/5/3 315/5/3 314/5/3
f 318/5/3 315/5/3 317/5/3
f 321/5/3 320/5/3 319/5/3
f 322/5/3 320/5/3 321/5/3
f 324/5/3 323/5/3 322/5/3
f 325/5/3 323/5/3 324/5/3
f 330/1/3 327/1/3 326/1/3
f 331/1/3 327/1/3 330/1/3
f 332/5/3 329/5/3 328/5/3
f 333/5/3 329/5/3 332/5/3
f 338/5/3 334/5/3 333/5/3
f 339/5/3 334/5/3 338/5/3
f 340/1/3 336/1/3 335/1/3
f 341/1/3 336/1/3 340/1/3
f 342/5/3 338/5/3 337/5/3
f 343/5/3 338/5/3 342/5/3
f 347/5/3 345/5/3 344/5/3
f 348/5/3 345/5/3 347/5/3
f 349/5/3 347/5/3 346/5/3
f 350/5/3 347/5/3 349/5/3
f 355/1/3 352/1/3 351/1/3
f 356/1/3 352/1/3 355/1/3
f 357/5/3 354/5/3 353/5/3
f 358/5/3 354/5/3 357/5/3
f 360/5/3 359/5/3 358/5/3
f 361/5/3 359/5/3 360/5/3
f 364/5/3 363/5/3 362/5/3
f 365/5/3 363/5/3 364/5/3
f 371/5/3 367/5/3 366/5/3
f 372/5/3 367/5/3 371/5/3
f 373/1/3 369/1/3 368/1/3
f 374/1/3 369/1/3 373/1/3
f 375/5/3 371/5/3 370/5/3
f 376/5/3 371/5/3 375/5/3
f 379/5/3 378/5/3 377/5/3
f 380/5/3 378/5/3 379/5/3
f 384/5/3 381/5/3 380/5/3
f 385/5/3 381/5/3 384/5/3
f 387/1/3 383/1/3 382/1/3
f 388/1/3 383/1/3 387/1/3
f 389/5/3 386/5/3 385/5/3
f 390/5/3 386/5/3 389/5/3
f 392/5/3 391/5/3 390/5/3
f 393/5/3 391/5/3 392/5/3
f 396/5/3 395/5/3 394/5/3
f 397/5/3 395/5/3 396/5/3
f 400/5/3 399/5/3 398/5/3
f 401/5/3 399/5/3 400/5/3
f 407/5/3 403/5/3 402/5/3
f 408/5/3 403/5/3 407/5/3
f 409/1/3 405/1/3 404/1/3
f 410/1/3 405/1/3 409/1/3
f 412/5/3 407/5/3 406/5/3
f 413/5/3 407/5/3 412/5/3
f 415/5/3 412/5/3 411/5/3
f 416/5/3 412/5/3 415/5/3
f 417/5/3 415/5/3 414/5/3
f 418/5/3 415/5/3 417/5/3
f 421/5/3 420/5/3 419/5/3
f 422/5/3 420/5/3 421/5/3
f 425/5/3 424/5/3 423/5/3
f 426/5/3 424/5/3 425/5/3
f 427/5/4 428/5/4 429/5/4
f 429/5/4 428/5/4 430/5/4
f 431/5/4 432/5/4 433/5/4
f 433/5/4 432/5/4 434/5/4
f 435/5/4 436/5/4 437/5/4
f 437/5/4 436/5/4 438/5/4
f 438/5/4 439/5/4 442/5/4
f 442/5/4 439/5/4 443/5/4
f 440/1/4 441/1/4 445/1/4
f 445/1/4 441/1/4 446/1/4
f 443/5/4 444/5/4 447/5/4
f 447/5/4 444/5/4 448/5/4
f 448/5/4 449/5/4 450/5/4
f 450/5/4 449/5/4 451/5/4
f 452/5/4 453/5/4 454/5/4
f 454/5/4 453/5/4 455/5/4
f 456/5/4 457/5/4 458/5/4
f 458/5/4 457/5/4 459/5/4
f 460/5/4 461/5/4 465/5/4
f 465/5/4 461/5/4 466/5/4
f 462/1/4 463/1/4 467/1/4
f 467/1/4 463/1/4 468/1/4
f 464/5/4 465/5/4 470/5/4
f 470/5/4 465/5/4 471/5/4
f 469/5/4 470/5/4 473/5/4
f 473/5/4 470/5/4 474/5/4
f 472/5/4 473/5/4 475/5/4
f 475/5/4 473/5/4 476/5/4
f 477/1/4 478/1/4 481/1/4
f 481/1/4 478/1/4 482/1/4
f 479/5/4 480/5/4 483/5/4
f 483/5/4 480/5/4 484/5/4
f 484/5/4 485/5/4 486/5/4
f 486/5/4 485/5/4 487/5/4
f 488/5/4 489/5/4 490/5/4
f 490/5/4 489/5/4 491/5/4
f 492/5/4 493/5/4 497/5/4
f 497/5/4 493/5/4 498/5/4
f 494/1/4 495/1/4 499/1/4
f 499/1/4 495/1/4 500/1/4
f 496/5/4 497/5/4 501/5/4
f 501/5/4 497/5/4 502/5/4
f 503/5/4 504/5/4 505/5/4
f 505/5/4 504/5/4 506/5/4
f 506/5/4 507/5/4 508/5/4
f 508/5/4 507/5/4 509/5/4
f 510/1/4 511/1/4 514/1/4
f 514/1/4 511/1/4 515/1/4
f 512/5/4 513/5/4 516/5/4
f 516/5/4 513/5/4 517/5/4
f 517/5/4 518/5/4 522/5/4
f 522/5/4 518/5/4 523/5/4
f 519/1/4 520/1/4 524/1/4
f 524/1/4 520/1/4 525/1/4
f 521/5/4 522/5/4 526/5/4
f 526/5/4 522/5/4 527/5/4
f 528/5/4 529/5/4 531/5/4
f 531/5/4 529/5/4 532/5/4
f 530/5/4 531/5/4 533/5/4
f 533/5/4 531/5/4 534/5/4
f 535/5/4 536/5/4 537/5/4
f 537/5/4 536/5/4 538/5/4
f 538/5/4 539/5/4 542/5/4
f 542/5/4 539/5/4 543/5/4
f 540/1/4 541/1/4 545/1/4
f 545/1/4 541/1/4 546/1/4
f 543/5/4 544/5/4 548/5/4
f 548/5/4 544/5/4 549/5/4
f 547/5/4 548/5/4 551/5/4
f 551/5/4 548/5/4 552/5/4
f 550/5/4 551/5/4 553/5/4
f 553/5/4 551/5/4 554/5/4
f 555/5/4 556/5/4 557/5/4
f 557/5/4 556/5/4 558/5/4
f 558/5/4 559/5/4 561/5/4
f 561/5/4 559/5/4 562/5/4
f 560/5/4 561/5/4 563/5/4
f 563/5/4 561/5/4 564/5/4
f 565/5/4 566/5/4 567/5/4
f 567/5/4 566/5/4 568/5/4
f 572/1/5 570/1/5 569/1/5
f 573/1/5 570/1/5 572/1/5
f 576/1/5 572/1/5 571/1/5
f 576/1/5 574/1/5 573/1/5
f 576/1/5 573/1/5 572/1/5
f 577/1/5 574/1/5 576/1/5
f 580/1/5 576/1/5 575/1/5
f 580/1/5 578/1/5 577/1/5
f 580/1/5 577/1/5 576/1/5
f 581/1/5 578/1/5 580/1/5
f 583/1/5 580/1/5 579/1/5
f 583/1/5 582/1/5 581/1/5
f 583/1/5 581/1/5 580/1/5
f 584/1/5 582/1/5 583/1/5
f 585/1/5 582/1/5 584/1/5
f 586/1/5 582/1/5 585/1/5
f 587/1/5 585/1/5 584/1/5
f 588/1/5 585/1/5 587/1/5
f 589/1/5 585/1/5 588/1/5
f 590/1/5 585/1/5 589/1/5
f 591/1/5 589/1/5 588/1/5
f 592/1/5 589/1/5 591/1/5
f 593/1/5 589/1/5 592/1/5
f 594/1/5 589/1/5 593/1/5
f 595/1/5 593/1/5 592/1/5
f 596/1/5 593/1/5 595/1/5
f 600/5/5 598/5/5 597/5/5
f 601/5/5 598/5/5 600/5/5
f 604/5/5 600/5/5 599/5/5
f 604/5/5 602/5/5 601/5/5
f 604/5/5 601/5/5 600/5/5
f 605/5/5 602/5/5 604/5/5
f 606/5/5 602/5/5 605/5/5
f 607/5/5 602/5/5 606/5/5
f 610/5/5 604/5/5 603/5/5
f 610/5/5 605/5/5 604/5/5
f 611/5/5 605/5/5 610/5/5
f 612/5/5 605/5/5 611/5/5
f 613/5/5 607/5/5 606/5/5
f 613/5/5 608/5/5 607/5/5
f 614/5/5 608/5/5 613/5/5
f 615/5/5 608/5/5 614/5/5
f 617/5/5 611/5/5 610/5/5
f 617/5/5 610/5/5 609/5/5
f 618/5/5 611/5/5 617/5/5
f 619/5/5 616/5/5 615/5/5
f 619/5/5 615/5/5 614/5/5
f 620/5/5 616/5/5 619/5/5
f 622/5/5 617/5/5 609/5/5
f 623/5/5 617/5/5 622/5/5
f 624/5/5 617/5/5 623/5/5
f 625/5/5 616/5/5 620/5/5
f 626/5/5 616/5/5 625/5/5
f 627/5/5 616/5/5 626/5/5
f 629/5/5 622/5/5 621/5/5
f 629/5/5 623/5/5 622/5/5
f 630/5/5 623/5/5 629/5/5
f 631/5/5 623/5/5 630/5/5
f 634/5/5 628/5/5 627/5/5
f 634/5/5 627/5/5 626/5/5
f 635/5/5 628/5/5 634/5/5
f 636/5/5 628/5/5 635/5/5
f 637/5/5 632/5/5 631/5/5
f 637/5/5 631/5/5 630/5/5
f 640/5/5 635/5/5 634/5/5
f 640/5/5 634/5/5 633/5/5
f 641/5/5 638/5/5 637/5/5
f 641/5/5 637/5/5 630/5/5
f 642/5/5 638/5/5 641/5/5
f 643/5/5 638/5/5 642/5/5
f 646/5/5 640/5/5 639/5/5
f 647/5/5 635/5/5 640/5/5
f 647/5/5 640/5/5 646/5/5
f 648/5/5 635/5/5 647/5/5
f 649/5/5 644/5/5 643/5/5
f 649/5/5 643/5/5 642/5/5
f 650/5/5 644/5/5 649/5/5
f 651/5/5 644/5/5 650/5/5
f 652/5/5 646/5/5 645/5/5
f 652/5/5 647/5/5 646/5/5
f 653/5/5 647/5/5 652/5/5
f 654/5/5 647/5/5 653/5/5
f 655/5/5 651/5/5 650/5/5
f 655/5/5 653/5/5 652/5/5
f 655/5/5 652/5/5 651/5/5
f 656/5/5 653/5/5 655/5/5
f 657/5/5 653/5/5 656/5/5
f 658/5/5 653/5/5 657/5/5
f 659/5/5 657/5/5 656/5/5
f 660/5/5 657/5/5 659/5/5
f 661/5/6 662/5/6 664/5/6
f 664/5/6 662/5/6 665/5/6
f 663/5/6 664/5/6 668/5/6
f 668/5/6 664/5/6 669/5/6
f 665/5/6 666/5/6 670/5/6
f 670/5/6 666/5/6 671/5/6
f 667/5/6 668/5/6 674/5/6
f 674/5/6 668/5/6 675/5/6
f 671/5/6 672/5/6 676/5/6
f 676/5/6 672/5/6 677/5/6
f 673/5/6 674/5/6 680/5/6
f 680/5/6 674/5/6 681/5/6
f 677/5/6 678/5/6 682/5/6
f 682/5/6 678/5/6 683/5/6
f 679/5/6 680/5/6 685/5/6
f 685/5/6 680/5/6 686/5/6
f 683/5/6 684/5/6 689/5/6
f 689/5/6 684/5/6 690/5/6
f 686/5/6 687/5/6 691/5/6
f 691/5/6 687/5/6 692/5/6
f 688/5/6 689/5/6 695/5/6
f 695/5/6 689/5/6 696/5/6
f 692/5/6 693/5/6 697/5/6
f 697/5/6 693/5/6 698/5/6
f 694/5/6 695/5/6 701/5/6
f 701/5/6 695/5/6 702/5/6
f 698/5/6 699/5/6 703/5/6
f 703/5/6 699/5/6 704/5/6
f 700/5/6 701/5/6 705/5/6
f 705/5/6 701/5/6 706/5/6
f 704/5/6 705/5/6 707/5/6
f 707/5/6 705/5/6 708/5/6
f 709/5/6 710/5/6 712/5/6
f 712/5/6 710/5/6 713/5/6
f 711/5/6 712/5/6 716/5/6
f 716/5/6 712/5/6 717/5/6
f 717/5/6 712/5/6 718/5/6
f 713/5/6 714/5/6 719/5/6
f 719/5/6 714/5/6 720/5/6
f 720/5/6 714/5/6 721/5/6
f 715/5/6 716/5/6 723/5/6
f 716/5/6 717/5/6 723/5/6
f 723/5/6 717/5/6 724/5/6
f 721/5/6 722/5/6 725/5/6
f 720/5/6 721/5/6 725/5/6
f 725/5/6 722/5/6 726/5/6
f 715/5/6 723/5/6 728/5/6
f 728/5/6 723/5/6 729/5/6
f 726/5/6 722/5/6 730/5/6
f 730/5/6 722/5/6 731/5/6
f 727/5/6 728/5/6 733/5/6
f 733/5/6 728/5/6 734/5/6
f 731/5/6 732/5/6 737/5/6
f 737/5/6 732/5/6 738/5/6
f 734/5/6 735/5/6 739/5/6
f 736/5/6 737/5/6 742/5/6
f 739/5/6 740/5/6 743/5/6
f 734/5/6 739/5/6 743/5/6
f 743/5/6 740/5/6 744/5/6
f 744/5/6 740/5/6 745/5/6
f 741/5/6 742/5/6 748/5/6
f 742/5/6 737/5/6 749/5/6
f 748/5/6 742/5/6 749/5/6
f 749/5/6 737/5/6 750/5/6
f 745/5/6 746/5/6 751/5/6
f 744/5/6 745/5/6 751/5/6
f 751/5/6 746/5/6 752/5/6
f 747/5/6 748/5/6 753/5/6
f 748/5/6 749/5/6 753/5/6
f 753/5/6 749/5/6 754/5/6
f 752/5/6 753/5/6 755/5/6
f 755/5/6 753/5/6 756/5/6
f 757/5/6 758/5/6 760/5/6
f 760/5/6 758/5/6 761/5/6
f 759/5/6 760/5/6 764/5/6
f 764/5/6 760/5/6 765/5/6
f 761/5/6 762/5/6 766/5/6
f 766/5/6 762/5/6 767/5/6
f 763/5/6 764/5/6 770/5/6
f 770/5/6 764/5/6 771/5/6
f 767/5/6 768/5/6 772/5/6
f 772/5/6 768/5/6 773/5/6
f 769/5/6 770/5/6 775/5/6
f 775/5/6 770/5/6 776/5/6
f 773/5/6 774/5/6 779/5/6
f 779/5/6 774/5/6 780/5/6
f 776/5/6 777/5/6 781/5/6
f 781/5/6 777/5/6 782/5/6
f 778/5/6 779/5/6 785/5/6
f 785/5/6 779/5/6 786/5/6
f 782/5/6 783/5/6 787/5/6
f 787/5/6 783/5/6 788/5/6
f 784/5/6 785/5/6 789/5/6
f 789/5/6 785/5/6 790/5/6
f 788/5/6 789/5/6 791/5/6
f 791/5/6 789/5/6 792/5/6
f 793/5/6 794/5/6 796/5/6
f 796/5/6 794/5/6 797/5/6
f 797/5/6 794/5/6 798/5/6
f 798/5/6 794/5/6 799/5/6
f 795/5/6 796/5/6 802/5/6
f 796/5/6 797/5/6 802/5/6
f 802/5/6 797/5/6 803/5/6
f 803/5/6 797/5/6 804/5/6
f 798/5/6 799/5/6 805/5/6
f 799/5/6 800/5/6 805/5/6
f 805/5/6 800/5/6 806/5/6
f 806/5/6 800/5/6 807/5/6
f 802/5/6 803/5/6 809/5/6
f 801/5/6 802/5/6 809/5/6
f 809/5/6 803/5/6 810/5/6
f 807/5/6 808/5/6 811/5/6
f 806/5/6 807/5/6 811/5/6
f 811/5/6 808/5/6 812/5/6
f 801/5/6 809/5/6 813/5/6
f 812/5/6 808/5/6 816/5/6
f 813/5/6 814/5/6 817/5/6
f 801/5/6 813/5/6 817/5/6
f 817/5/6 814/5/6 818/5/6
f 818/5/6 814/5/6 819/5/6
f 815/5/6 816/5/6 822/5/6
f 816/5/6 808/5/6 823/5/6
f 822/5/6 816/5/6 823/5/6
f 823/5/6 808/5/6 824/5/6
f 819/5/6 820/5/6 825/5/6
f 818/5/6 819/5/6 825/5/6
f 825/5/6 820/5/6 826/5/6
f 826/5/6 820/5/6 827/5/6
f 821/5/6 822/5/6 828/5/6
f 822/5/6 823/5/6 828/5/6
f 828/5/6 823/5/6 829/5/6
f 829/5/6 823/5/6 830/5/6
f 826/5/6 827/5/6 831/5/6
f 828/5/6 829/5/6 831/5/6
f 827/5/6 828/5/6 831/5/6
f 831/5/6 829/5/6 832/5/6
f 833/5/6 834/5/6 836/5/6
f 836/5/6 834/5/6 837/5/6
f 835/5/6 836/5/6 840/5/6
f 837/5/6 838/5/6 840/5/6
f 836/5/6 837/5/6 840/5/6
f 840/5/6 838/5/6 841/5/6
f 839/5/6 840/5/6 843/5/6
f 841/5/6 842/5/6 843/5/6
f 840/5/6 841/5/6 843/5/6
f 843/5/6 842/5/6 844/5/6
f 844/5/6 842/5/6 845/5/6
f 845/5/6 842/5/6 846/5/6
f 844/5/6 845/5/6 847/5/6
f 847/5/6 845/5/6 848/5/6
f 848/5/6 845/5/6 849/5/6
f 849/5/6 845/5/6 850/5/6
f 848/5/6 849/5/6 851/5/6
f 851/5/6 849/5/6 852/5/6
